<?xml version="1.0" standalone="no"?>
<svg xmlns="http://www.w3.org/2000/svg" viewBox="0 0 99.767 115.2" width="99.767" height="115.2"><polygon fill="none" stroke="#ead017" stroke-width="3" points="98.267,29.55 98.267,85.65 49.8835,113.7 1.5,85.65 1.5,29.55 49.8835,1.5"></polygon><g fill="#000000" color="#000000" transform="translate(27.883499999999998 22.5) scale(0.4888889)"><svg width="90.0" height="90.0" x="0.0" y="0.0" viewBox="0 0 90 90"><path d="M65.488,65.37c-0.571,0.471-1.272,0.724-1.988,0.741c-0.424,0.009-0.85-0.063-1.255-0.223  c-0.492-0.195-0.905-0.517-1.24-0.899c-3.28,4.264-7.92,7.411-13.282,8.8c2.99-2.082,5.463-5.671,7.121-10.209h5.453  c-0.021-0.096-0.063-0.182-0.074-0.279l-0.285-2.165H55.63c0.841-2.991,1.343-6.308,1.438-9.836h1.574l-0.322-2.444h-1.252  c-0.045-1.637-0.187-3.225-0.396-4.757c-0.779,0.217-1.588,0.431-2.39,0.645c0.174,1.336,0.302,2.7,0.344,4.112h-8.61L45.52,51.3  h9.105c-0.104,3.541-0.639,6.884-1.537,9.836H42.795v-5.401l-1.252,0.875c-0.363,0.257-0.772,0.399-1.192,0.486v4.04H30.058  c-0.439-1.446-0.79-2.989-1.047-4.6c-0.267,0.108-0.542,0.217-0.804,0.329c-0.524,0.223-0.992,0.445-1.49,0.668  c0.219,1.238,0.477,2.451,0.798,3.603h-7.807v-0.002c-0.703,0.429-1.374,0.857-1.996,1.292c-0.491,0.346-0.938,0.686-1.361,1.023  c4.805,9.025,14.303,15.189,25.221,15.189c10.239,0,19.208-5.433,24.25-13.549L65.488,65.37z M21.114,63.58h7.188  c1.661,4.538,4.13,8.127,7.121,10.209C29.482,72.252,24.412,68.564,21.114,63.58z M40.351,73.266  c-3.883-0.645-7.27-4.322-9.421-9.686h9.421V73.266z M42.795,63.58h9.421c-2.149,5.361-5.54,9.041-9.421,9.686V63.58z"></path><path d="M87.363,24.459c-3.995-2.627-12.348-0.773-21.615,2.803L49.466,11.36l-5.485,0.188L57.07,30.955  c-5.385,2.476-10.719,5.232-15.396,7.779l-6.756-5.102l-2.806,0.327l6.977,8.789l0.601,11.208l2.317-1.617l1.677-8.297  c5.19-1.188,11.015-2.66,16.687-4.372l3.053,23.206l4.232-3.495l1.654-22.695C78.628,33.219,86.111,29.072,87.363,24.459z"></path><path d="M48.527,24.071l-1.348-1.999c-1.819-0.362-3.688-0.56-5.61-0.56c-14.262,0-26.082,10.519-28.192,24.199  c1.755-1.324,3.46-2.488,5.021-3.501c0.37-1.097,0.789-2.173,1.308-3.194h3.933c1.418-0.817,2.874-1.633,4.406-2.444h-6.933  c3.296-4.984,8.368-8.671,14.31-10.209c-1.592,1.11-3.032,2.657-4.287,4.538c0.197-0.063,0.393-0.13,0.604-0.153l2.806-0.327  c0.017-0.001,0.037,0,0.052-0.001c1.697-1.917,3.647-3.184,5.752-3.532v6.794l1.615,1.221c0.282-0.151,0.549-0.284,0.829-0.435  v-7.58c2.373,0.393,4.56,1.933,6.396,4.285l3.166-1.505L48.527,24.071z"></path><path d="M35.919,43.951l-4.397-5.538c-2.987,1.531-6.322,3.345-9.807,5.517c-3.892,2.446-7.978,5.27-11.725,8.869  c-1.86,1.813-3.648,3.828-5.098,6.258c-0.717,1.217-1.339,2.549-1.767,3.991c-0.115,0.353-0.192,0.733-0.28,1.101  c-0.047,0.183-0.069,0.375-0.104,0.563l-0.102,0.681l-0.003,0.832l0.023,1.226c0.107,1.477,0.501,3.049,1.285,4.42  c0.766,1.383,1.916,2.446,3.06,3.128c2.327,1.363,4.509,1.586,6.388,1.697c3.773,0.115,6.669-0.5,8.695-0.902  c0.631-0.134,1.162-0.256,1.612-0.361c-5.88-0.309-9.543-1.719-11.51-2.787c-0.562-0.285-1.083-0.605-1.528-0.977  c-0.205-0.159-0.317-0.263-0.317-0.263l0.038-0.003c-0.121-0.115-0.262-0.223-0.364-0.346c-0.886-1.059-0.909-2.021-0.595-3.401  c0.054-0.142,0.101-0.271,0.14-0.405l0.239-0.799l0.008-0.023c0.022-0.125-0.022,0.141-0.016,0.106l0.013-0.028l0.022-0.063  l0.044-0.121c0.033-0.079,0.051-0.159,0.092-0.242c0.079-0.163,0.133-0.326,0.228-0.491c0.332-0.663,0.786-1.338,1.348-2.008  c1.127-1.343,2.652-2.629,4.323-3.804c3.372-2.351,7.309-4.276,11.085-5.885c3.284-1.394,6.455-2.523,9.317-3.473L35.919,43.951z"></path></svg></g><path fill="#000000" fill-rule="nonzero" d="M4.34 1.88Q4.26 1.54 4.26 1.01Q4.26 0.48 4.28 0.31L4.28 0.31Q6.75 0 7.95 0Q9.16 0 10.00 0.28L10.00 0.28Q10.67 5.54 14.67 16.55L14.67 16.55L15.71 16.63Q15.76 17.25 15.76 17.49Q15.76 17.72 15.68 18.20L15.68 18.20Q14.90 18.17 13.24 18.17Q11.59 18.17 10.95 18.20L10.95 18.20Q10.86 17.78 10.86 17.40Q10.86 17.02 10.92 16.63L10.92 16.63L11.90 16.55Q11.76 15.88 11.45 14.60Q11.14 13.33 11.12 13.19L11.12 13.19Q9.52 13.10 7.66 13.10Q5.80 13.10 4.17 13.22L4.17 13.22L3.39 16.55L4.45 16.63Q4.51 17.25 4.51 17.49Q4.51 17.72 4.42 18.20L4.42 18.20Q3.75 18.17 2.23 18.17Q0.70 18.17 0.08 18.20L0.08 18.20Q0 17.78 0 17.40Q0 17.02 0.06 16.63L0.06 16.63L1.04 16.55Q4.40 7.34 5.46 1.96L5.46 1.96L4.34 1.88ZM4.68 11.26L4.68 11.26Q5.63 11.28 7.53 11.28Q9.44 11.28 10.61 11.20L10.61 11.20Q9.30 6.22 7.84 1.99L7.84 1.99L7.67 1.99Q6.02 5.99 4.68 11.26ZM22.23 2.10L22.23 2.10Q22.04 4.28 22.04 9.11Q22.04 13.94 22.26 16.55L22.26 16.55L23.88 16.72Q23.94 17.16 23.94 17.43Q23.94 17.70 23.86 18.20L23.86 18.20Q22.85 18.17 20.96 18.17Q19.07 18.17 18.20 18.20L18.20 18.20Q18.12 17.78 18.12 17.50Q18.12 17.22 18.17 16.72L18.17 16.72L19.71 16.55Q19.94 13.55 19.94 8.95Q19.94 4.34 19.68 2.10L19.68 2.10Q18.59 2.13 16.66 2.30L16.66 2.30L16.58 4.37Q16.13 4.45 15.74 4.45Q15.34 4.45 15.01 4.42L15.01 4.42Q14.92 2.13 14.76 0.17L14.76 0.17L14.90 0.03Q16.97 0.28 21.53 0.28Q26.10 0.28 27.24 0.03L27.24 0.03L27.38 0.17Q27.19 2.32 27.13 4.14L27.13 4.14Q26.80 4.17 26.42 4.17Q26.04 4.17 25.56 4.09L25.56 4.09L25.48 2.21Q24.30 2.16 22.23 2.10ZM31.00 1.88Q30.91 1.54 30.91 1.01Q30.91 0.48 30.94 0.31L30.94 0.31Q33.40 0 34.61 0Q35.81 0 36.65 0.28L36.65 0.28Q37.32 5.54 41.33 16.55L41.33 16.55L42.36 16.63Q42.42 17.25 42.42 17.49Q42.42 17.72 42.34 18.20L42.34 18.20Q41.55 18.17 39.90 18.17Q38.25 18.17 37.60 18.20L37.60 18.20Q37.52 17.78 37.52 17.40Q37.52 17.02 37.58 16.63L37.58 16.63L38.56 16.55Q38.42 15.88 38.11 14.60Q37.80 13.33 37.77 13.19L37.77 13.19Q36.18 13.10 34.31 13.10Q32.45 13.10 30.83 13.22L30.83 13.22L30.04 16.55L31.11 16.63Q31.16 17.25 31.16 17.49Q31.16 17.72 31.08 18.20L31.08 18.20Q30.41 18.17 28.88 18.17Q27.36 18.17 26.74 18.20L26.74 18.20Q26.66 17.78 26.66 17.40Q26.66 17.02 26.71 16.63L26.71 16.63L27.69 16.55Q31.05 7.34 32.12 1.96L32.12 1.96L31.00 1.88ZM31.33 11.26L31.33 11.26Q32.28 11.28 34.19 11.28Q36.09 11.28 37.27 11.20L37.27 11.20Q35.95 6.22 34.50 1.99L34.50 1.99L34.33 1.99Q32.68 5.99 31.33 11.26ZM48.89 2.10L48.89 2.10Q48.69 4.28 48.69 9.11Q48.69 13.94 48.92 16.55L48.92 16.55L50.54 16.72Q50.60 17.16 50.60 17.43Q50.60 17.70 50.51 18.20L50.51 18.20Q49.50 18.17 47.61 18.17Q45.72 18.17 44.86 18.20L44.86 18.20Q44.77 17.78 44.77 17.50Q44.77 17.22 44.83 16.72L44.83 16.72L46.37 16.55Q46.59 13.55 46.59 8.95Q46.59 4.34 46.34 2.10L46.34 2.10Q45.25 2.13 43.32 2.30L43.32 2.30L43.23 4.37Q42.78 4.45 42.39 4.45Q42.00 4.45 41.66 4.42L41.66 4.42Q41.58 2.13 41.41 0.17L41.41 0.17L41.55 0.03Q43.62 0.28 48.19 0.28Q52.75 0.28 53.90 0.03L53.90 0.03L54.04 0.17Q53.84 2.32 53.79 4.14L53.79 4.14Q53.45 4.17 53.07 4.17Q52.70 4.17 52.22 4.09L52.22 4.09L52.14 2.21Q50.96 2.16 48.89 2.10Z" transform="translate(22.864, 74.5)"></path></svg>