<?xml version="1.0" standalone="no"?>
<svg xmlns="http://www.w3.org/2000/svg" width="432.35546896048726" height="213.7031252104873" viewBox="0 0 432.35546896048726 213.7031252104873"><g fill="#51be95" color="#51be95" transform="translate(0 0.001) scale(2.3744792)"><svg width="90.0" height="90.0" x="0.0" y="0.0" viewBox="0 0 90 90"><path d="M65.488,65.37c-0.571,0.471-1.272,0.724-1.988,0.741c-0.424,0.009-0.85-0.063-1.255-0.223  c-0.492-0.195-0.905-0.517-1.24-0.899c-3.28,4.264-7.92,7.411-13.282,8.8c2.99-2.082,5.463-5.671,7.121-10.209h5.453  c-0.021-0.096-0.063-0.182-0.074-0.279l-0.285-2.165H55.63c0.841-2.991,1.343-6.308,1.438-9.836h1.574l-0.322-2.444h-1.252  c-0.045-1.637-0.187-3.225-0.396-4.757c-0.779,0.217-1.588,0.431-2.39,0.645c0.174,1.336,0.302,2.7,0.344,4.112h-8.61L45.52,51.3  h9.105c-0.104,3.541-0.639,6.884-1.537,9.836H42.795v-5.401l-1.252,0.875c-0.363,0.257-0.772,0.399-1.192,0.486v4.04H30.058  c-0.439-1.446-0.79-2.989-1.047-4.6c-0.267,0.108-0.542,0.217-0.804,0.329c-0.524,0.223-0.992,0.445-1.49,0.668  c0.219,1.238,0.477,2.451,0.798,3.603h-7.807v-0.002c-0.703,0.429-1.374,0.857-1.996,1.292c-0.491,0.346-0.938,0.686-1.361,1.023  c4.805,9.025,14.303,15.189,25.221,15.189c10.239,0,19.208-5.433,24.25-13.549L65.488,65.37z M21.114,63.58h7.188  c1.661,4.538,4.13,8.127,7.121,10.209C29.482,72.252,24.412,68.564,21.114,63.58z M40.351,73.266  c-3.883-0.645-7.27-4.322-9.421-9.686h9.421V73.266z M42.795,63.58h9.421c-2.149,5.361-5.54,9.041-9.421,9.686V63.58z"></path><path d="M87.363,24.459c-3.995-2.627-12.348-0.773-21.615,2.803L49.466,11.36l-5.485,0.188L57.07,30.955  c-5.385,2.476-10.719,5.232-15.396,7.779l-6.756-5.102l-2.806,0.327l6.977,8.789l0.601,11.208l2.317-1.617l1.677-8.297  c5.19-1.188,11.015-2.66,16.687-4.372l3.053,23.206l4.232-3.495l1.654-22.695C78.628,33.219,86.111,29.072,87.363,24.459z"></path><path d="M48.527,24.071l-1.348-1.999c-1.819-0.362-3.688-0.56-5.61-0.56c-14.262,0-26.082,10.519-28.192,24.199  c1.755-1.324,3.46-2.488,5.021-3.501c0.37-1.097,0.789-2.173,1.308-3.194h3.933c1.418-0.817,2.874-1.633,4.406-2.444h-6.933  c3.296-4.984,8.368-8.671,14.31-10.209c-1.592,1.11-3.032,2.657-4.287,4.538c0.197-0.063,0.393-0.13,0.604-0.153l2.806-0.327  c0.017-0.001,0.037,0,0.052-0.001c1.697-1.917,3.647-3.184,5.752-3.532v6.794l1.615,1.221c0.282-0.151,0.549-0.284,0.829-0.435  v-7.58c2.373,0.393,4.56,1.933,6.396,4.285l3.166-1.505L48.527,24.071z"></path><path d="M35.919,43.951l-4.397-5.538c-2.987,1.531-6.322,3.345-9.807,5.517c-3.892,2.446-7.978,5.27-11.725,8.869  c-1.86,1.813-3.648,3.828-5.098,6.258c-0.717,1.217-1.339,2.549-1.767,3.991c-0.115,0.353-0.192,0.733-0.28,1.101  c-0.047,0.183-0.069,0.375-0.104,0.563l-0.102,0.681l-0.003,0.832l0.023,1.226c0.107,1.477,0.501,3.049,1.285,4.42  c0.766,1.383,1.916,2.446,3.06,3.128c2.327,1.363,4.509,1.586,6.388,1.697c3.773,0.115,6.669-0.5,8.695-0.902  c0.631-0.134,1.162-0.256,1.612-0.361c-5.88-0.309-9.543-1.719-11.51-2.787c-0.562-0.285-1.083-0.605-1.528-0.977  c-0.205-0.159-0.317-0.263-0.317-0.263l0.038-0.003c-0.121-0.115-0.262-0.223-0.364-0.346c-0.886-1.059-0.909-2.021-0.595-3.401  c0.054-0.142,0.101-0.271,0.14-0.405l0.239-0.799l0.008-0.023c0.022-0.125-0.022,0.141-0.016,0.106l0.013-0.028l0.022-0.063  l0.044-0.121c0.033-0.079,0.051-0.159,0.092-0.242c0.079-0.163,0.133-0.326,0.228-0.491c0.332-0.663,0.786-1.338,1.348-2.008  c1.127-1.343,2.652-2.629,4.323-3.804c3.372-2.351,7.309-4.276,11.085-5.885c3.284-1.394,6.455-2.523,9.317-3.473L35.919,43.951z"></path></svg></g><path fill="#0466b2" fill-rule="nonzero" d="M7.30 20.84L5.47 26.62Q3.79 26.46 1.54 26.46L1.54 26.46L0 26.46L8.50 2.66Q9.06 1.05 9.06 0.79Q9.06 0.53 9.04 0.47L9.04 0.47L9.06 0.43Q10.33 0.49 11.76 0.49L11.76 0.49Q12.93 0.49 14.57 0.45L14.57 0.45L14.59 0.49Q14.55 0.57 14.55 0.70L14.55 0.70Q14.55 1.07 15.14 2.68L15.14 2.68L23.81 26.52Q23.42 26.50 22.89 26.50L22.89 26.50Q22.89 26.50 21.88 26.46L21.88 26.46Q21.39 26.46 21.00 26.46L21.00 26.46L17.97 26.46L16.13 20.84L7.30 20.84ZM8.79 16.15L14.61 16.15L11.66 7.07L8.79 16.15ZM39.88 26.62L35.35 16.37Q34.77 16.41 34.10 16.41Q33.44 16.41 32.13 16.31L32.13 16.31L32.13 26.46L26.95 26.46L26.95 0.35Q29.69 0 33.67 0L33.67 0Q39.10 0 41.77 2.00Q44.43 4.00 44.43 8.18L44.43 8.18Q44.43 11.43 41.99 13.73L41.99 13.73Q41.19 14.47 40.16 15.02L40.16 15.02L44.14 23.42Q45.31 26.02 45.94 26.50L45.94 26.50L45.84 26.60Q43.95 26.29 39.88 26.62L39.88 26.62ZM34.04 4.61L34.04 4.61Q33.05 4.61 32.13 4.71L32.13 4.71L32.13 12.17Q33.09 12.30 34.38 12.30Q35.66 12.30 36.54 12.08Q37.42 11.86 38.07 11.39L38.07 11.39Q39.45 10.35 39.45 8.28Q39.45 6.21 38.01 5.37L38.01 5.37Q36.66 4.61 34.04 4.61ZM71.60 10.76L71.66 10.80Q71.29 11.46 71.29 13.98L71.29 13.98L71.29 20.04Q71.29 22.79 68.44 24.82L68.44 24.82Q65.49 26.95 61.21 26.95L61.21 26.95Q55.27 26.95 51.74 23.22L51.74 23.22Q48.32 19.67 48.32 14.16L48.32 14.16Q48.32 8.30 51.80 4.39L51.80 4.39Q55.68 0 62.50 0L62.50 0Q67.05 0 69.71 1.76L69.71 1.76L69.39 7.52L69.24 7.56Q68.55 6.37 66.54 5.61L66.54 5.61Q64.63 4.88 62.53 4.88Q60.43 4.88 58.86 5.55Q57.29 6.21 56.19 7.44L56.19 7.44Q53.89 9.96 53.89 14.10L53.89 14.10Q53.89 17.71 55.92 19.90L55.92 19.90Q57.95 22.07 61.15 22.07L61.15 22.07Q64.69 22.07 65.92 20.23L65.92 20.23Q66.31 19.65 66.31 18.91L66.31 18.91L66.31 15.66L63.79 15.66Q61.76 15.66 61.58 16.02L61.58 16.02L61.52 16.00L61.35 10.90Q61.89 11.05 65.78 11.05L65.78 11.05L68.09 11.05Q70.23 11.05 71.60 10.76L71.60 10.76ZM81.99 21.78L89.96 21.78Q91.17 21.78 91.64 21.54L91.64 21.54L91.72 21.56L91.52 26.46L76.89 26.46L76.89 0.35Q77.42 0.39 78.07 0.41L78.07 0.41L79.43 0.45Q80.80 0.49 82.40 0.49L82.40 0.49Q86.88 0.49 91.25 0.33L91.25 0.33Q91.04 2.05 91.04 4.92L91.04 4.92Q91.04 5.23 91.07 5.39L91.07 5.39L91.04 5.45Q90.02 5.16 88.14 5.16L88.14 5.16L81.99 5.16L81.99 10.14L86.62 10.14Q88.77 10.14 89.20 10.02L89.20 10.02L89.26 14.84Q88.32 14.75 86.84 14.75L86.84 14.75L81.99 14.75L81.99 21.78ZM102.21 26.46L97.11 26.46Q97.23 25.80 97.23 25.02L97.23 25.02L97.23 0.49L101.13 0.49L111.48 16.78L111.48 1.82Q111.48 0.74 111.29 0.49L111.29 0.49L116.56 0.49Q116.46 1.27 116.46 2.21L116.46 2.21L116.46 26.46L112.40 26.46L102.21 10.82L102.21 26.46ZM132.85 4.86L132.85 26.58Q131.91 26.46 128.03 26.46L128.03 26.46L127.40 26.46L127.40 4.86L123.54 4.86Q121.82 4.86 121.50 5.04Q121.19 5.21 121.02 5.35L121.02 5.35L120.96 5.33L120.96 0.33L121.02 0.27Q121.66 0.49 124.49 0.49L124.49 0.49L136.74 0.49Q138.46 0.49 138.77 0.31Q139.08 0.14 139.26 0L139.26 0L139.32 0.02L139.32 5.02L139.26 5.08Q138.61 4.86 135.78 4.86L135.78 4.86L132.85 4.86ZM144.12 26.46L144.12 0.41Q146.07 0.49 146.48 0.49L146.48 0.49L147.89 0.49Q148.93 0.49 149.55 0.33L149.55 0.33L149.53 26.46L144.12 26.46ZM162.15 26.46L157.05 26.46Q157.17 25.80 157.17 25.02L157.17 25.02L157.17 0.49L161.07 0.49L171.43 16.78L171.43 1.82Q171.43 0.74 171.23 0.49L171.23 0.49L176.50 0.49Q176.41 1.27 176.41 2.21L176.41 2.21L176.41 26.46L172.34 26.46L162.15 10.82L162.15 26.46ZM187.15 20.84L185.31 26.62Q183.63 26.46 181.39 26.46L181.39 26.46L179.84 26.46L188.34 2.66Q188.91 1.05 188.91 0.79Q188.91 0.53 188.89 0.47L188.89 0.47L188.91 0.43Q190.18 0.49 191.60 0.49L191.60 0.49Q192.77 0.49 194.41 0.45L194.41 0.45L194.43 0.49Q194.39 0.57 194.39 0.70L194.39 0.70Q194.39 1.07 194.98 2.68L194.98 2.68L203.65 26.52Q203.26 26.50 202.73 26.50L202.73 26.50Q202.73 26.50 201.72 26.46L201.72 26.46Q201.23 26.46 200.84 26.46L200.84 26.46L197.81 26.46L195.98 20.84L187.15 20.84ZM188.63 16.15L194.45 16.15L191.50 7.07L188.63 16.15Z" transform="translate(228.704 0) scale(1)"></path><path fill="#0466b2" fill-rule="nonzero" d="M11.89 4.86L11.89 26.58Q10.96 26.46 7.07 26.46L7.07 26.46L6.45 26.46L6.45 4.86L2.58 4.86Q0.86 4.86 0.55 5.04Q0.23 5.21 0.06 5.35L0.06 5.35L0 5.33L0 0.33L0.06 0.27Q0.70 0.49 3.54 0.49L3.54 0.49L15.78 0.49Q17.50 0.49 17.81 0.31Q18.13 0.14 18.30 0L18.30 0L18.36 0.02L18.36 5.02L18.30 5.08Q17.66 4.86 14.82 4.86L14.82 4.86L11.89 4.86ZM35.49 26.62L30.96 16.37Q30.37 16.41 29.71 16.41Q29.04 16.41 27.73 16.31L27.73 16.31L27.73 26.46L22.56 26.46L22.56 0.35Q25.29 0 29.28 0L29.28 0Q34.71 0 37.37 2.00Q40.04 4.00 40.04 8.18L40.04 8.18Q40.04 11.43 37.60 13.73L37.60 13.73Q36.80 14.47 35.76 15.02L35.76 15.02L39.75 23.42Q40.92 26.02 41.54 26.50L41.54 26.50L41.45 26.60Q39.55 26.29 35.49 26.62L35.49 26.62ZM29.65 4.61L29.65 4.61Q28.65 4.61 27.73 4.71L27.73 4.71L27.73 12.17Q28.69 12.30 29.98 12.30Q31.27 12.30 32.15 12.08Q33.03 11.86 33.67 11.39L33.67 11.39Q35.06 10.35 35.06 8.28Q35.06 6.21 33.61 5.37L33.61 5.37Q32.27 4.61 29.65 4.61ZM49.59 20.84L47.75 26.62Q46.07 26.46 43.83 26.46L43.83 26.46L42.29 26.46L50.78 2.66Q51.35 1.05 51.35 0.79Q51.35 0.53 51.33 0.47L51.33 0.47L51.35 0.43Q52.62 0.49 54.04 0.49L54.04 0.49Q55.21 0.49 56.86 0.45L56.86 0.45L56.88 0.49Q56.84 0.57 56.84 0.70L56.84 0.70Q56.84 1.07 57.42 2.68L57.42 2.68L66.09 26.52Q65.70 26.50 65.18 26.50L65.18 26.50Q65.18 26.50 64.16 26.46L64.16 26.46Q63.67 26.46 63.28 26.46L63.28 26.46L60.25 26.46L58.42 20.84L49.59 20.84ZM51.07 16.15L56.89 16.15L53.95 7.07L51.07 16.15ZM80.39 26.48L80.35 26.54Q79.73 26.46 78.30 26.46L78.30 26.46L76.15 26.46Q75.63 26.46 75.20 26.50L75.20 26.50L75.18 26.46Q75.25 26.33 75.25 26.15Q75.25 25.98 75.22 25.78Q75.20 25.59 75.06 25.08Q74.92 24.57 74.63 23.61L74.63 23.61L73.81 21.00L66.54 0.41Q67.75 0.49 69.63 0.49Q71.50 0.49 72.03 0.33L72.03 0.33L77.91 18.09L83.07 0.41Q84.24 0.49 85.96 0.49L85.96 0.49Q88.30 0.49 88.69 0.33L88.69 0.33L81.56 20.94Q81.56 20.94 80.88 23.22L80.88 23.22Q80.31 25.18 80.31 25.75Q80.31 26.33 80.39 26.48L80.39 26.48ZM97.64 21.78L105.61 21.78Q106.82 21.78 107.29 21.54L107.29 21.54L107.36 21.56L107.17 26.46L92.54 26.46L92.54 0.35Q93.07 0.39 93.71 0.41L93.71 0.41L95.08 0.45Q96.45 0.49 98.05 0.49L98.05 0.49Q102.52 0.49 106.89 0.33L106.89 0.33Q106.68 2.05 106.68 4.92L106.68 4.92Q106.68 5.23 106.72 5.39L106.72 5.39L106.68 5.45Q105.66 5.16 103.79 5.16L103.79 5.16L97.64 5.16L97.64 10.14L102.27 10.14Q104.41 10.14 104.84 10.02L104.84 10.02L104.90 14.84Q103.96 14.75 102.48 14.75L102.48 14.75L97.64 14.75L97.64 21.78ZM118.24 26.46L116.39 26.46Q113.52 26.46 112.58 26.58L112.58 26.58L112.58 0.37Q113.05 0.49 114.52 0.49Q116.00 0.49 117.95 0.41L117.95 0.41L117.95 21.78L121.99 21.78Q123.75 21.78 124.80 21.66L124.80 21.66Q124.67 26.23 124.67 26.41L124.67 26.41L124.67 26.60Q122.75 26.46 118.24 26.46L118.24 26.46Z" transform="translate(228.704 34.954) scale(1.632)"></path><path fill="#0466b2" fill-rule="nonzero" d="M7.30 20.84L5.47 26.62Q3.79 26.46 1.54 26.46L1.54 26.46L0 26.46L8.50 2.66Q9.06 1.05 9.06 0.79Q9.06 0.53 9.04 0.47L9.04 0.47L9.06 0.43Q10.33 0.49 11.76 0.49L11.76 0.49Q12.93 0.49 14.57 0.45L14.57 0.45L14.59 0.49Q14.55 0.57 14.55 0.70L14.55 0.70Q14.55 1.07 15.14 2.68L15.14 2.68L23.81 26.52Q23.42 26.50 22.89 26.50L22.89 26.50Q22.89 26.50 21.88 26.46L21.88 26.46Q21.39 26.46 21.00 26.46L21.00 26.46L17.97 26.46L16.13 20.84L7.30 20.84ZM8.79 16.15L14.61 16.15L11.66 7.07L8.79 16.15ZM32.23 26.46L27.13 26.46Q27.25 25.80 27.25 25.02L27.25 25.02L27.25 0.49L31.15 0.49L41.50 16.78L41.50 1.82Q41.50 0.74 41.31 0.49L41.31 0.49L46.58 0.49Q46.48 1.27 46.48 2.21L46.48 2.21L46.48 26.46L42.42 26.46L32.23 10.82L32.23 26.46ZM59.82 26.95L59.82 26.95Q56.66 26.95 53.87 26.45L53.87 26.45L53.87 0.31Q56.45 0 59.85 0Q63.26 0 66.03 0.93Q68.79 1.86 70.64 3.57L70.64 3.57Q74.39 7.01 74.39 13.20L74.39 13.20Q74.39 20.14 70.21 23.73L70.21 23.73Q66.46 26.95 59.82 26.95ZM58.95 4.79L58.95 22.19Q60.21 22.42 61.48 22.42Q62.75 22.42 64.22 21.92Q65.68 21.43 66.76 20.37L66.76 20.37Q69.06 18.14 69.06 13.89L69.06 13.89Q69.06 6.89 63.96 5.29L63.96 5.29Q62.29 4.77 60.08 4.77L60.08 4.77L59.55 4.77Q59.26 4.77 58.95 4.79L58.95 4.79Z" transform="translate(228.704 86.393) scale(2.738)"></path><path fill="#0466b2" fill-rule="nonzero" d="M11.89 4.86L11.89 26.58Q10.96 26.46 7.07 26.46L7.07 26.46L6.45 26.46L6.45 4.86L2.58 4.86Q0.86 4.86 0.55 5.04Q0.23 5.21 0.06 5.35L0.06 5.35L0 5.33L0 0.33L0.06 0.27Q0.70 0.49 3.54 0.49L3.54 0.49L15.78 0.49Q17.50 0.49 17.81 0.31Q18.13 0.14 18.30 0L18.30 0L18.36 0.02L18.36 5.02L18.30 5.08Q17.66 4.86 14.82 4.86L14.82 4.86L11.89 4.86ZM24.69 23.38Q22.91 21.68 21.88 19.30Q20.86 16.91 20.86 14.07Q20.86 11.23 21.82 8.69Q22.77 6.15 24.55 4.22Q26.33 2.29 28.85 1.14Q31.37 0 34.49 0L34.49 0Q39.88 0 43.57 3.40L43.57 3.40Q47.52 7.03 47.52 13.20L47.52 13.20Q47.52 19.18 43.46 23.14L43.46 23.14Q40.96 25.59 37.50 26.50L37.50 26.50Q35.80 26.95 33.53 26.95Q31.25 26.95 28.86 26.02Q26.46 25.08 24.69 23.38ZM26.29 13.81L26.29 13.81Q26.29 15.63 26.89 17.15Q27.50 18.67 28.57 19.77L28.57 19.77Q30.86 22.07 34.45 22.07L34.45 22.07Q37.87 22.07 39.94 19.86L39.94 19.86Q42.05 17.58 42.05 13.63L42.05 13.63Q42.05 9.92 40.04 7.44L40.04 7.44Q37.87 4.79 34.10 4.79L34.10 4.79Q30.45 4.79 28.30 7.48L28.30 7.48Q26.29 10 26.29 13.81ZM67.34 16.21L67.34 0.39Q68.55 0.49 69.36 0.49L69.36 0.49L70.98 0.49Q71.80 0.49 72.70 0.33L72.70 0.33L72.70 16.48Q72.70 21.29 69.79 24.20L69.79 24.20Q67.03 26.95 62.87 26.95L62.87 26.95Q58.32 26.95 55.51 24.59L55.51 24.59Q52.36 21.93 52.36 16.93L52.36 16.93L52.36 0.39Q53.98 0.49 55.42 0.49Q56.86 0.49 57.79 0.33L57.79 0.33L57.79 17.19Q57.79 19.65 59.30 21.02L59.30 21.02Q60.70 22.27 62.81 22.27L62.81 22.27Q65.94 22.27 66.97 19.06L66.97 19.06Q67.34 17.91 67.34 16.21L67.34 16.21ZM92.19 26.62L87.66 16.37Q87.07 16.41 86.41 16.41Q85.74 16.41 84.43 16.31L84.43 16.31L84.43 26.46L79.26 26.46L79.26 0.35Q81.99 0 85.98 0L85.98 0Q91.41 0 94.07 2.00Q96.74 4.00 96.74 8.18L96.74 8.18Q96.74 11.43 94.30 13.73L94.30 13.73Q93.50 14.47 92.46 15.02L92.46 15.02L96.45 23.42Q97.62 26.02 98.24 26.50L98.24 26.50L98.14 26.60Q96.25 26.29 92.19 26.62L92.19 26.62ZM86.35 4.61L86.35 4.61Q85.35 4.61 84.43 4.71L84.43 4.71L84.43 12.17Q85.39 12.30 86.68 12.30Q87.97 12.30 88.85 12.08Q89.73 11.86 90.37 11.39L90.37 11.39Q91.76 10.35 91.76 8.28Q91.76 6.21 90.31 5.37L90.31 5.37Q88.96 4.61 86.35 4.61ZM118.24 1.93L118.24 1.93L117.87 7.68L117.73 7.71Q116.29 5.55 112.81 4.90L112.81 4.90Q111.72 4.69 110.71 4.69Q109.71 4.69 108.99 4.86Q108.28 5.04 107.77 5.37L107.77 5.37Q106.70 6.07 106.70 7.21L106.70 7.21Q106.70 8.69 107.64 9.43L107.64 9.43Q108.81 10.33 111.52 10.69Q114.24 11.05 115.88 11.68Q117.52 12.30 118.57 13.26L118.57 13.26Q120.57 15.06 120.57 18.34L120.57 18.34Q120.57 22.64 117.32 24.96L117.32 24.96Q114.55 26.95 110.33 26.95L110.33 26.95Q106.93 26.95 103.61 25.66L103.61 25.66Q102.52 25.23 101.70 24.67L101.70 24.67L101.91 18.14L101.99 18.09Q104.41 22.27 109.94 22.27L109.94 22.27Q113.87 22.27 115.14 20.37L115.14 20.37Q115.57 19.73 115.57 18.94Q115.57 18.14 115.31 17.63Q115.06 17.11 114.47 16.74L114.47 16.74Q113.34 16.00 110.66 15.74Q107.99 15.49 106.29 14.79Q104.59 14.08 103.57 13.05L103.57 13.05Q101.74 11.17 101.74 7.81L101.74 7.81Q101.74 4.34 104.18 2.19L104.18 2.19Q106.66 0 110.87 0Q115.08 0 118.24 1.93Z" transform="translate(228.704 168.176) scale(1.69)"></path></svg>