<?xml version="1.0" standalone="no"?>
<svg xmlns="http://www.w3.org/2000/svg" viewBox="0 0 219 238.696" width="219" height="238.696"><rect fill="none" stroke="#ead017" stroke-width="4" width="215" height="234.696" x="2" y="2"></rect><path fill="#000000" fill-rule="nonzero" d="M6.20 2.92Q6.08 2.44 6.08 1.68Q6.08 0.92 6.12 0.68L6.12 0.68Q9.64 0.24 11.36 0.24Q13.08 0.24 14.28 0.64L14.28 0.64Q15.24 8.16 20.96 23.88L20.96 23.88L22.44 24Q22.52 24.88 22.52 25.22Q22.52 25.56 22.40 26.24L22.40 26.24Q21.28 26.20 18.92 26.20Q16.56 26.20 15.64 26.24L15.64 26.24Q15.52 25.64 15.52 25.10Q15.52 24.56 15.60 24L15.60 24L17 23.88Q16.80 22.92 16.36 21.10Q15.92 19.28 15.88 19.08L15.88 19.08Q13.60 18.96 10.94 18.96Q8.28 18.96 5.96 19.12L5.96 19.12L4.84 23.88L6.36 24Q6.44 24.88 6.44 25.22Q6.44 25.56 6.32 26.24L6.32 26.24Q5.36 26.20 3.18 26.20Q1 26.20 0.12 26.24L0.12 26.24Q0 25.64 0 25.10Q0 24.56 0.08 24L0.08 24L1.48 23.88Q6.28 10.72 7.80 3.04L7.80 3.04L6.20 2.92ZM6.68 16.32L6.68 16.32Q8.04 16.36 10.76 16.36Q13.48 16.36 15.16 16.24L15.16 16.24Q13.28 9.12 11.20 3.08L11.20 3.08L10.96 3.08Q8.60 8.80 6.68 16.32ZM32.44 12.24L32.44 12.24Q33.60 13.32 35.38 13.32Q37.16 13.32 38.30 11.82Q39.44 10.32 39.44 7.84L39.44 7.84Q39.44 2.28 34.16 2.28L34.16 2.28Q32.36 2.28 30.40 3.08L30.40 3.08Q30.12 6.56 30.12 12.96Q30.12 19.36 30.48 23.88L30.48 23.88L31.96 24Q32.04 24.88 32.04 25.22Q32.04 25.56 31.92 26.24L31.92 26.24Q30.76 26.20 28.52 26.20Q26.28 26.20 25.44 26.24L25.44 26.24Q25.32 25.64 25.32 25.10Q25.32 24.56 25.40 24L25.40 24L26.80 23.88Q27.12 19.48 27.12 12.84Q27.12 6.20 26.72 3.04L26.72 3.04L25.20 2.92Q25.08 2.44 25.08 1.68Q25.08 0.92 25.12 0.68L25.12 0.68Q27.80 0.60 29.84 0.30Q31.88 0 34.20 0L34.20 0Q42.92 0 42.92 7.84L42.92 7.84Q42.92 11.00 41.36 13.04Q39.80 15.08 37 15.60L37 15.60Q40.96 21.88 42.48 23.68L42.48 23.68L44.36 23.80Q44.44 24.44 44.44 24.98Q44.44 25.52 44.32 26.12L44.32 26.12Q40.68 26.24 39.24 26.32L39.24 26.32L39.08 25.88Q38.40 24.20 37.42 22.38Q36.44 20.56 33.32 15.68L33.32 15.68Q32.48 15.64 31.60 15.24L31.60 15.24Q31.60 14.44 31.86 13.50Q32.12 12.56 32.44 12.24ZM65.24 24.16L65.24 24.16Q61.68 26.80 56.84 26.80Q52 26.80 49.62 23.52Q47.24 20.24 47.24 13.48L47.24 13.48Q47.24 0 57.28 0L57.28 0Q60.08 0 62.04 1.10Q64 2.20 64.84 4.24L64.84 4.24Q65.08 4.96 65.08 5.80L65.08 5.80Q65.08 8.20 63 8.20L63 8.20Q61.76 8.20 61.08 7.44Q60.40 6.68 60.40 5.48Q60.40 4.28 60.88 3.60L60.88 3.60Q59.60 2.36 57.28 2.36L57.28 2.36Q53.96 2.36 52.24 5.10Q50.52 7.84 50.52 13.16L50.52 13.16Q50.52 23.84 57.16 23.84L57.16 23.84Q60.40 23.84 62.64 22L62.64 22Q62.60 18.80 62.36 16.52L62.36 16.52Q57.56 16.68 55.92 16.96L55.92 16.96Q55.72 15.88 55.72 14.88Q55.72 13.88 55.76 13.52L55.76 13.52Q57.80 13.84 60.88 13.84Q63.96 13.84 65.64 13.72L65.64 13.72Q65.24 17.96 65.24 24.16ZM82.48 11.48L82.60 9.96Q83.48 9.88 83.80 9.88Q84.12 9.88 84.84 10L84.84 10Q84.80 11.24 84.80 13.20Q84.80 15.16 84.84 15.76L84.84 15.76Q84.24 15.88 83.68 15.88Q83.12 15.88 82.60 15.80L82.60 15.80L82.48 14.40Q80.32 14.32 78.92 14.32Q77.52 14.32 75.36 14.40L75.36 14.40Q75.36 19.64 75.64 23.16L75.64 23.16Q77.04 23.28 79.62 23.28Q82.20 23.28 83.68 23.08L83.68 23.08L83.80 20.36Q84.48 20.24 85.06 20.24Q85.64 20.24 86.04 20.28L86.04 20.28Q86.08 23.40 86.40 26.20L86.40 26.20L86.20 26.40Q84.24 26.20 77.62 26.20Q71 26.20 70.64 26.24L70.64 26.24Q70.52 25.64 70.52 25.10Q70.52 24.56 70.60 24L70.60 24L72 23.88Q72.36 17.68 72.36 12.66Q72.36 7.64 71.88 2.96L71.88 2.96L70.52 2.84Q70.44 2.32 70.44 1.76Q70.44 1.20 70.56 0.60L70.56 0.60Q71.56 0.64 77.88 0.64Q84.20 0.64 86 0.28L86 0.28L86.20 0.48Q85.88 4 85.84 6.16L85.84 6.16Q85.44 6.20 84.84 6.20Q84.24 6.20 83.60 6.08L83.60 6.08L83.48 3.36Q81.44 3.24 79.24 3.24Q77.04 3.24 75.60 3.36L75.60 3.36Q75.36 5.88 75.36 11.60L75.36 11.60Q76 11.64 77.96 11.64Q79.92 11.64 82.48 11.48L82.48 11.48ZM107.92 20.40L107.92 20.40Q108.04 17.04 108.04 11.60Q108.04 6.16 107.68 2.84L107.68 2.84L106.20 2.72Q106.12 2.08 106.12 1.62Q106.12 1.16 106.24 0.48L106.24 0.48Q107.52 0.52 109.18 0.52Q110.84 0.52 112.08 0.48L112.08 0.48Q112.20 1.08 112.20 1.54Q112.20 2 112.12 2.72L112.12 2.72L110.72 2.84Q110.44 6.08 110.44 15.02Q110.44 23.96 111.12 26.12L111.12 26.12Q109.92 26.52 109.38 26.52Q108.84 26.52 107.48 26.44L107.48 26.44Q107.20 25.20 105.12 21.94Q103.04 18.68 99.94 14.16Q96.84 9.64 95.48 7.40L95.48 7.40Q95.44 9.12 95.44 14.40Q95.44 19.68 95.80 23.88L95.80 23.88L97.28 24Q97.36 24.64 97.36 25.10Q97.36 25.56 97.24 26.24L97.24 26.24Q95.96 26.20 94.28 26.20Q92.60 26.20 91.36 26.24L91.36 26.24Q91.24 25.64 91.24 25.18Q91.24 24.72 91.32 24L91.32 24L92.72 23.88Q93.04 19.56 93.04 12.94Q93.04 6.32 92.68 3.04L92.68 3.04L91.12 2.92Q91.00 2.36 91.00 1.68Q91.00 1 91.04 0.68L91.04 0.68Q94.44 0.60 96.08 0.48L96.08 0.48Q96.84 3.36 100.40 9.12Q103.96 14.88 107.92 20.40ZM125.88 3.24L125.88 3.24Q125.60 6.36 125.60 13.26Q125.60 20.16 125.92 23.88L125.92 23.88L128.24 24.12Q128.32 24.76 128.32 25.14Q128.32 25.52 128.20 26.24L128.20 26.24Q126.76 26.20 124.06 26.20Q121.36 26.20 120.12 26.24L120.12 26.24Q120.00 25.64 120.00 25.24Q120.00 24.84 120.08 24.12L120.08 24.12L122.28 23.88Q122.60 19.60 122.60 13.02Q122.60 6.44 122.24 3.24L122.24 3.24Q120.68 3.28 117.92 3.52L117.92 3.52L117.80 6.48Q117.16 6.60 116.60 6.60Q116.04 6.60 115.56 6.56L115.56 6.56Q115.44 3.28 115.20 0.48L115.20 0.48L115.40 0.28Q118.36 0.64 124.88 0.64Q131.40 0.64 133.04 0.28L133.04 0.28L133.24 0.48Q132.96 3.56 132.88 6.16L132.88 6.16Q132.40 6.20 131.86 6.20Q131.32 6.20 130.64 6.08L130.64 6.08L130.52 3.40Q128.84 3.32 125.88 3.24ZM143.44 2.72L141.92 2.84Q141.64 6.08 141.64 12.88Q141.64 19.68 142 23.88L142 23.88L143.44 24Q143.52 24.64 143.52 25.10Q143.52 25.56 143.40 26.24L143.40 26.24Q142 26.20 140.16 26.20Q138.32 26.20 136.96 26.24L136.96 26.24Q136.84 25.64 136.84 25.18Q136.84 24.72 136.92 24L136.92 24L138.32 23.88Q138.64 19.56 138.64 12.86Q138.64 6.16 138.28 2.84L138.28 2.84L136.92 2.72Q136.84 2.08 136.84 1.62Q136.84 1.16 136.96 0.48L136.96 0.48Q138.36 0.52 140.20 0.52Q142.04 0.52 143.40 0.48L143.40 0.48Q143.52 1.08 143.52 1.54Q143.52 2 143.44 2.72L143.44 2.72ZM165.84 20.40L165.84 20.40Q165.96 17.04 165.96 11.60Q165.96 6.16 165.60 2.84L165.60 2.84L164.12 2.72Q164.04 2.08 164.04 1.62Q164.04 1.16 164.16 0.48L164.16 0.48Q165.44 0.52 167.10 0.52Q168.76 0.52 170 0.48L170 0.48Q170.12 1.08 170.12 1.54Q170.12 2 170.04 2.72L170.04 2.72L168.64 2.84Q168.36 6.08 168.36 15.02Q168.36 23.96 169.04 26.12L169.04 26.12Q167.84 26.52 167.30 26.52Q166.76 26.52 165.40 26.44L165.40 26.44Q165.12 25.20 163.04 21.94Q160.96 18.68 157.86 14.16Q154.76 9.64 153.40 7.40L153.40 7.40Q153.36 9.12 153.36 14.40Q153.36 19.68 153.72 23.88L153.72 23.88L155.20 24Q155.28 24.64 155.28 25.10Q155.28 25.56 155.16 26.24L155.16 26.24Q153.88 26.20 152.20 26.20Q150.52 26.20 149.28 26.24L149.28 26.24Q149.16 25.64 149.16 25.18Q149.16 24.72 149.24 24L149.24 24L150.64 23.88Q150.96 19.56 150.96 12.94Q150.96 6.32 150.60 3.04L150.60 3.04L149.04 2.92Q148.92 2.36 148.92 1.68Q148.92 1 148.96 0.68L148.96 0.68Q152.36 0.60 154 0.48L154 0.48Q154.76 3.36 158.32 9.12Q161.88 14.88 165.84 20.40ZM178.68 2.92Q178.56 2.44 178.56 1.68Q178.56 0.92 178.60 0.68L178.60 0.68Q182.12 0.24 183.84 0.24Q185.56 0.24 186.76 0.64L186.76 0.64Q187.72 8.16 193.44 23.88L193.44 23.88L194.92 24Q195 24.88 195 25.22Q195 25.56 194.88 26.24L194.88 26.24Q193.76 26.20 191.40 26.20Q189.04 26.20 188.12 26.24L188.12 26.24Q188 25.64 188 25.10Q188 24.56 188.08 24L188.08 24L189.48 23.88Q189.28 22.92 188.84 21.10Q188.40 19.28 188.36 19.08L188.36 19.08Q186.08 18.96 183.42 18.96Q180.76 18.96 178.44 19.12L178.44 19.12L177.32 23.88L178.84 24Q178.92 24.88 178.92 25.22Q178.92 25.56 178.80 26.24L178.80 26.24Q177.84 26.20 175.66 26.20Q173.48 26.20 172.60 26.24L172.60 26.24Q172.48 25.64 172.48 25.10Q172.48 24.56 172.56 24L172.56 24L173.96 23.88Q178.76 10.72 180.28 3.04L180.28 3.04L178.68 2.92ZM179.16 16.32L179.16 16.32Q180.52 16.36 183.24 16.36Q185.96 16.36 187.64 16.24L187.64 16.24Q185.76 9.12 183.68 3.08L183.68 3.08L183.44 3.08Q181.08 8.80 179.16 16.32Z" transform="translate(12 12) scale(1)"></path><path fill="#000000" fill-rule="nonzero" d="M10.68 3.24L10.68 3.24Q10.40 6.36 10.40 13.26Q10.40 20.16 10.72 23.88L10.72 23.88L13.04 24.12Q13.12 24.76 13.12 25.14Q13.12 25.52 13 26.24L13 26.24Q11.56 26.20 8.86 26.20Q6.16 26.20 4.92 26.24L4.92 26.24Q4.80 25.64 4.80 25.24Q4.80 24.84 4.88 24.12L4.88 24.12L7.08 23.88Q7.40 19.60 7.40 13.02Q7.40 6.44 7.04 3.24L7.04 3.24Q5.48 3.28 2.72 3.52L2.72 3.52L2.60 6.48Q1.96 6.60 1.40 6.60Q0.84 6.60 0.36 6.56L0.36 6.56Q0.24 3.28 0 0.48L0 0.48L0.20 0.28Q3.16 0.64 9.68 0.64Q16.20 0.64 17.84 0.28L17.84 0.28L18.04 0.48Q17.76 3.56 17.68 6.16L17.68 6.16Q17.20 6.20 16.66 6.20Q16.12 6.20 15.44 6.08L15.44 6.08L15.32 3.40Q13.64 3.32 10.68 3.24ZM28.60 12.24L28.60 12.24Q29.76 13.32 31.54 13.32Q33.32 13.32 34.46 11.82Q35.60 10.32 35.60 7.84L35.60 7.84Q35.60 2.28 30.32 2.28L30.32 2.28Q28.52 2.28 26.56 3.08L26.56 3.08Q26.28 6.56 26.28 12.96Q26.28 19.36 26.64 23.88L26.64 23.88L28.12 24Q28.20 24.88 28.20 25.22Q28.20 25.56 28.08 26.24L28.08 26.24Q26.92 26.20 24.68 26.20Q22.44 26.20 21.60 26.24L21.60 26.24Q21.48 25.64 21.48 25.10Q21.48 24.56 21.56 24L21.56 24L22.96 23.88Q23.28 19.48 23.28 12.84Q23.28 6.20 22.88 3.04L22.88 3.04L21.36 2.92Q21.24 2.44 21.24 1.68Q21.24 0.92 21.28 0.68L21.28 0.68Q23.96 0.60 26 0.30Q28.04 0 30.36 0L30.36 0Q39.08 0 39.08 7.84L39.08 7.84Q39.08 11.00 37.52 13.04Q35.96 15.08 33.16 15.60L33.16 15.60Q37.12 21.88 38.64 23.68L38.64 23.68L40.52 23.80Q40.60 24.44 40.60 24.98Q40.60 25.52 40.48 26.12L40.48 26.12Q36.84 26.24 35.40 26.32L35.40 26.32L35.24 25.88Q34.56 24.20 33.58 22.38Q32.60 20.56 29.48 15.68L29.48 15.68Q28.64 15.64 27.76 15.24L27.76 15.24Q27.76 14.44 28.02 13.50Q28.28 12.56 28.60 12.24ZM47.36 2.92Q47.24 2.44 47.24 1.68Q47.24 0.92 47.28 0.68L47.28 0.68Q50.80 0.24 52.52 0.24Q54.24 0.24 55.44 0.64L55.44 0.64Q56.40 8.16 62.12 23.88L62.12 23.88L63.60 24Q63.68 24.88 63.68 25.22Q63.68 25.56 63.56 26.24L63.56 26.24Q62.44 26.20 60.08 26.20Q57.72 26.20 56.80 26.24L56.80 26.24Q56.68 25.64 56.68 25.10Q56.68 24.56 56.76 24L56.76 24L58.16 23.88Q57.96 22.92 57.52 21.10Q57.08 19.28 57.04 19.08L57.04 19.08Q54.76 18.96 52.10 18.96Q49.44 18.96 47.12 19.12L47.12 19.12L46 23.88L47.52 24Q47.60 24.88 47.60 25.22Q47.60 25.56 47.48 26.24L47.48 26.24Q46.52 26.20 44.34 26.20Q42.16 26.20 41.28 26.24L41.28 26.24Q41.16 25.64 41.16 25.10Q41.16 24.56 41.24 24L41.24 24L42.64 23.88Q47.44 10.72 48.96 3.04L48.96 3.04L47.36 2.92ZM47.84 16.32L47.84 16.32Q49.20 16.36 51.92 16.36Q54.64 16.36 56.32 16.24L56.32 16.24Q54.44 9.12 52.36 3.08L52.36 3.08L52.12 3.08Q49.76 8.80 47.84 16.32ZM63.24 2.84L61.76 2.72Q61.68 2.08 61.68 1.62Q61.68 1.16 61.80 0.48L61.80 0.48Q63.20 0.52 65.30 0.52Q67.40 0.52 68.92 0.48L68.92 0.48Q69.04 1.08 69.04 1.54Q69.04 2 68.96 2.72L68.96 2.72L67.56 2.84Q68.40 7.40 70 13.06Q71.60 18.72 73.24 22.72L73.24 22.72L73.48 22.72Q74.92 19.20 76.58 13.08Q78.24 6.96 78.92 2.84L78.92 2.84L77.44 2.72Q77.36 2.40 77.36 1.78Q77.36 1.16 77.48 0.48L77.48 0.48Q78.92 0.52 80.96 0.52Q83 0.52 84.24 0.48L84.24 0.48Q84.36 1.08 84.36 1.50Q84.36 1.92 84.28 2.72L84.28 2.72L82.88 2.84Q81.08 7.64 78.54 15.16Q76 22.68 75.12 26.20L75.12 26.20Q73.68 26.56 72.50 26.56Q71.32 26.56 70.96 26.52L70.96 26.52Q66.84 11.76 63.24 2.84L63.24 2.84ZM99.04 11.48L99.16 9.96Q100.04 9.88 100.36 9.88Q100.68 9.88 101.40 10L101.40 10Q101.36 11.24 101.36 13.20Q101.36 15.16 101.40 15.76L101.40 15.76Q100.80 15.88 100.24 15.88Q99.68 15.88 99.16 15.80L99.16 15.80L99.04 14.40Q96.88 14.32 95.48 14.32Q94.08 14.32 91.92 14.40L91.92 14.40Q91.92 19.64 92.20 23.16L92.20 23.16Q93.60 23.28 96.18 23.28Q98.76 23.28 100.24 23.08L100.24 23.08L100.36 20.36Q101.04 20.24 101.62 20.24Q102.20 20.24 102.60 20.28L102.60 20.28Q102.64 23.40 102.96 26.20L102.96 26.20L102.76 26.40Q100.80 26.20 94.18 26.20Q87.56 26.20 87.20 26.24L87.20 26.24Q87.08 25.64 87.08 25.10Q87.08 24.56 87.16 24L87.16 24L88.56 23.88Q88.92 17.68 88.92 12.66Q88.92 7.64 88.44 2.96L88.44 2.96L87.08 2.84Q87 2.32 87 1.76Q87 1.20 87.12 0.60L87.12 0.60Q88.12 0.64 94.44 0.64Q100.76 0.64 102.56 0.28L102.56 0.28L102.76 0.48Q102.44 4 102.40 6.16L102.40 6.16Q102 6.20 101.40 6.20Q100.80 6.20 100.16 6.08L100.16 6.08L100.04 3.36Q98 3.24 95.80 3.24Q93.60 3.24 92.16 3.36L92.16 3.36Q91.92 5.88 91.92 11.60L91.92 11.60Q92.56 11.64 94.52 11.64Q96.48 11.64 99.04 11.48L99.04 11.48ZM107.84 24L109.24 23.88Q109.60 18.36 109.60 12.24Q109.60 6.12 109.24 2.84L109.24 2.84L107.88 2.72Q107.80 2.08 107.80 1.62Q107.80 1.16 107.92 0.48L107.92 0.48Q109.32 0.52 111.16 0.52Q113.00 0.52 114.36 0.48L114.36 0.48Q114.48 1.08 114.48 1.54Q114.48 2 114.40 2.72L114.40 2.72L112.88 2.84Q112.60 6.60 112.60 13.18Q112.60 19.76 112.88 23.16L112.88 23.16Q114.12 23.28 116.50 23.28Q118.88 23.28 120.12 23.08L120.12 23.08L120.24 20.36Q120.92 20.24 121.46 20.24Q122.00 20.24 122.48 20.28L122.48 20.28Q122.60 23.32 122.84 26.20L122.84 26.20L122.64 26.40Q120.76 26.20 115.00 26.20Q109.24 26.20 107.88 26.24L107.88 26.24Q107.76 25.64 107.76 25.18Q107.76 24.72 107.84 24L107.84 24Z" transform="translate(12 46.8) scale(1.588)"></path><path fill="#000000" fill-rule="nonzero" d="M6.20 2.92Q6.08 2.44 6.08 1.68Q6.08 0.92 6.12 0.68L6.12 0.68Q9.64 0.24 11.36 0.24Q13.08 0.24 14.28 0.64L14.28 0.64Q15.24 8.16 20.96 23.88L20.96 23.88L22.44 24Q22.52 24.88 22.52 25.22Q22.52 25.56 22.40 26.24L22.40 26.24Q21.28 26.20 18.92 26.20Q16.56 26.20 15.64 26.24L15.64 26.24Q15.52 25.64 15.52 25.10Q15.52 24.56 15.60 24L15.60 24L17 23.88Q16.80 22.92 16.36 21.10Q15.92 19.28 15.88 19.08L15.88 19.08Q13.60 18.96 10.94 18.96Q8.28 18.96 5.96 19.12L5.96 19.12L4.84 23.88L6.36 24Q6.44 24.88 6.44 25.22Q6.44 25.56 6.32 26.24L6.32 26.24Q5.36 26.20 3.18 26.20Q1 26.20 0.12 26.24L0.12 26.24Q0 25.64 0 25.10Q0 24.56 0.08 24L0.08 24L1.48 23.88Q6.28 10.72 7.80 3.04L7.80 3.04L6.20 2.92ZM6.68 16.32L6.68 16.32Q8.04 16.36 10.76 16.36Q13.48 16.36 15.16 16.24L15.16 16.24Q13.28 9.12 11.20 3.08L11.20 3.08L10.96 3.08Q8.60 8.80 6.68 16.32ZM41.80 20.40L41.80 20.40Q41.92 17.04 41.92 11.60Q41.92 6.16 41.56 2.84L41.56 2.84L40.08 2.72Q40 2.08 40 1.62Q40 1.16 40.12 0.48L40.12 0.48Q41.40 0.52 43.06 0.52Q44.72 0.52 45.96 0.48L45.96 0.48Q46.08 1.08 46.08 1.54Q46.08 2 46 2.72L46 2.72L44.60 2.84Q44.32 6.08 44.32 15.02Q44.32 23.96 45 26.12L45 26.12Q43.80 26.52 43.26 26.52Q42.72 26.52 41.36 26.44L41.36 26.44Q41.08 25.20 39 21.94Q36.92 18.68 33.82 14.16Q30.72 9.64 29.36 7.40L29.36 7.40Q29.32 9.12 29.32 14.40Q29.32 19.68 29.68 23.88L29.68 23.88L31.16 24Q31.24 24.64 31.24 25.10Q31.24 25.56 31.12 26.24L31.12 26.24Q29.84 26.20 28.16 26.20Q26.48 26.20 25.24 26.24L25.24 26.24Q25.12 25.64 25.12 25.18Q25.12 24.72 25.20 24L25.20 24L26.60 23.88Q26.92 19.56 26.92 12.94Q26.92 6.32 26.56 3.04L26.56 3.04L25 2.92Q24.88 2.36 24.88 1.68Q24.88 1 24.92 0.68L24.92 0.68Q28.32 0.60 29.96 0.48L29.96 0.48Q30.72 3.36 34.28 9.12Q37.84 14.88 41.80 20.40ZM60.44 26.80L60.44 26.80Q57.92 26.80 55.74 26.52Q53.56 26.24 51.12 26.12L51.12 26.12Q51.08 25.88 51.08 25.16Q51.08 24.44 51.20 23.88L51.20 23.88L52.80 23.76Q53.16 19.68 53.16 12.94Q53.16 6.20 52.76 3.04L52.76 3.04L51.20 2.92Q51.08 2.44 51.08 1.68Q51.08 0.92 51.12 0.68L51.12 0.68Q53.76 0.64 55.88 0.32Q58 0 60.44 0L60.44 0Q65.52 0 68.24 3.42Q70.96 6.84 70.96 13.20L70.96 13.20Q70.96 26.80 60.44 26.80ZM60.44 23.96L60.44 23.96Q63.88 23.96 65.70 21.20Q67.52 18.44 67.52 13.22Q67.52 8 65.68 5.18Q63.84 2.36 60.40 2.36L60.40 2.36Q58.40 2.36 56.44 3.12L56.44 3.12Q56.16 6.52 56.16 13.00Q56.16 19.48 56.48 23.12L56.48 23.12Q58.36 23.96 60.44 23.96Z" transform="translate(12 96.963) scale(2.749)"></path><path fill="#000000" fill-rule="nonzero" d="M10.68 3.24L10.68 3.24Q10.40 6.36 10.40 13.26Q10.40 20.16 10.72 23.88L10.72 23.88L13.04 24.12Q13.12 24.76 13.12 25.14Q13.12 25.52 13 26.24L13 26.24Q11.56 26.20 8.86 26.20Q6.16 26.20 4.92 26.24L4.92 26.24Q4.80 25.64 4.80 25.24Q4.80 24.84 4.88 24.12L4.88 24.12L7.08 23.88Q7.40 19.60 7.40 13.02Q7.40 6.44 7.04 3.24L7.04 3.24Q5.48 3.28 2.72 3.52L2.72 3.52L2.60 6.48Q1.96 6.60 1.40 6.60Q0.84 6.60 0.36 6.56L0.36 6.56Q0.24 3.28 0 0.48L0 0.48L0.20 0.28Q3.16 0.64 9.68 0.64Q16.20 0.64 17.84 0.28L17.84 0.28L18.04 0.48Q17.76 3.56 17.68 6.16L17.68 6.16Q17.20 6.20 16.66 6.20Q16.12 6.20 15.44 6.08L15.44 6.08L15.32 3.40Q13.64 3.32 10.68 3.24ZM20.84 13.12L20.84 13.12Q20.84 0 30.66 0Q40.48 0 40.48 13.12L40.48 13.12Q40.48 15.52 40.30 17.32Q40.12 19.12 39.50 21Q38.88 22.88 37.84 24.08Q36.80 25.28 34.98 26.04Q33.16 26.80 30.66 26.80Q28.16 26.80 26.34 26.04Q24.52 25.28 23.48 24.08Q22.44 22.88 21.82 21Q21.20 19.12 21.02 17.32Q20.84 15.52 20.84 13.12ZM27.28 22.96L27.28 22.96Q28.64 23.84 30.66 23.84Q32.68 23.84 34.06 22.96Q35.44 22.08 36.12 20.44L36.12 20.44Q37.32 17.60 37.32 13.16L37.32 13.16Q37.32 2.36 30.66 2.36Q24 2.36 24 13.16L24 13.16Q24 20.88 27.28 22.96ZM62 15.16L62 15.16Q62 6.52 61.60 2.84L61.60 2.84L60.20 2.72Q60.12 2.08 60.12 1.62Q60.12 1.16 60.24 0.48L60.24 0.48Q61.52 0.52 63.20 0.52Q64.88 0.52 66.12 0.48L66.12 0.48Q66.24 1.08 66.24 1.54Q66.24 2 66.16 2.72L66.16 2.72L64.84 2.84Q64.52 6.76 64.52 12.14Q64.52 17.52 64.36 19.14Q64.20 20.76 63.66 22.32Q63.12 23.88 62.16 24.80L62.16 24.80Q60.08 26.80 55.68 26.80L55.68 26.80Q50.04 26.80 48.28 23.64L48.28 23.64Q47.40 21.96 47.10 20.04Q46.80 18.12 46.80 12.32Q46.80 6.52 46.40 2.84L46.40 2.84L44.96 2.72Q44.88 2.08 44.88 1.62Q44.88 1.16 45 0.48L45 0.48Q46.40 0.52 48.24 0.52Q50.08 0.52 51.44 0.48L51.44 0.48Q51.56 1.08 51.56 1.54Q51.56 2 51.48 2.72L51.48 2.72L50.12 2.84Q49.80 6.76 49.80 15.16L49.80 15.16Q49.80 19.64 51.04 21.74Q52.28 23.84 55.96 23.84Q59.64 23.84 60.82 21.74Q62 19.64 62 15.16ZM78.40 12.24L78.40 12.24Q79.56 13.32 81.34 13.32Q83.12 13.32 84.26 11.82Q85.40 10.32 85.40 7.84L85.40 7.84Q85.40 2.28 80.12 2.28L80.12 2.28Q78.32 2.28 76.36 3.08L76.36 3.08Q76.08 6.56 76.08 12.96Q76.08 19.36 76.44 23.88L76.44 23.88L77.92 24Q78 24.88 78 25.22Q78 25.56 77.88 26.24L77.88 26.24Q76.72 26.20 74.48 26.20Q72.24 26.20 71.40 26.24L71.40 26.24Q71.28 25.64 71.28 25.10Q71.28 24.56 71.36 24L71.36 24L72.76 23.88Q73.08 19.48 73.08 12.84Q73.08 6.20 72.68 3.04L72.68 3.04L71.16 2.92Q71.04 2.44 71.04 1.68Q71.04 0.92 71.08 0.68L71.08 0.68Q73.76 0.60 75.80 0.30Q77.84 0 80.16 0L80.16 0Q88.88 0 88.88 7.84L88.88 7.84Q88.88 11.00 87.32 13.04Q85.76 15.08 82.96 15.60L82.96 15.60Q86.92 21.88 88.44 23.68L88.44 23.68L90.32 23.80Q90.40 24.44 90.40 24.98Q90.40 25.52 90.28 26.12L90.28 26.12Q86.64 26.24 85.20 26.32L85.20 26.32L85.04 25.88Q84.36 24.20 83.38 22.38Q82.40 20.56 79.28 15.68L79.28 15.68Q78.44 15.64 77.56 15.24L77.56 15.24Q77.56 14.44 77.82 13.50Q78.08 12.56 78.40 12.24ZM94.36 18.40Q95.60 18.40 96.28 19.16Q96.96 19.92 96.96 21.02Q96.96 22.12 96.60 22.80L96.60 22.80Q98.36 24.24 100.66 24.24Q102.96 24.24 104.12 23.18Q105.28 22.12 105.28 20.28Q105.28 18.44 104 17.12Q102.72 15.80 100.90 14.92Q99.08 14.04 97.28 13.06Q95.48 12.08 94.20 10.44Q92.92 8.80 92.92 6.56L92.92 6.56Q92.92 3.48 94.96 1.74Q97 0 100.20 0Q103.40 0 105.74 1.52Q108.08 3.04 108.08 5.62Q108.08 8.20 106 8.20L106 8.20Q104.76 8.20 104.08 7.44Q103.40 6.68 103.40 5.48Q103.40 4.28 103.88 3.64L103.88 3.64Q102.48 2.36 100.44 2.36Q98.40 2.36 97.38 3.40Q96.36 4.44 96.36 6Q96.36 7.56 97.28 8.66Q98.20 9.76 99.56 10.46Q100.92 11.16 102.52 12.06Q104.12 12.96 105.48 13.84Q106.84 14.72 107.76 16.22Q108.68 17.72 108.68 19.64L108.68 19.64Q108.68 22.80 106.50 24.80Q104.32 26.80 100.92 26.80Q97.52 26.80 94.90 25.22Q92.28 23.64 92.28 20.80L92.28 20.80Q92.28 18.40 94.36 18.40L94.36 18.40Z" transform="translate(12 178.61) scale(1.795)"></path></svg>