<?xml version="1.0" standalone="no"?>
<svg xmlns="http://www.w3.org/2000/svg" width="466.60601869348005" height="221.56601869348006" viewBox="0 0 466.60601869348005 221.56601869348006"><g fill="#cca131" color="#cca131" transform="translate(0 0) scale(2.4618447)"><svg width="90.0" height="90.0" x="0.0" y="0.0" viewBox="0 0 90 90"><path d="M65.488,65.37c-0.571,0.471-1.272,0.724-1.988,0.741c-0.424,0.009-0.85-0.063-1.255-0.223  c-0.492-0.195-0.905-0.517-1.24-0.899c-3.28,4.264-7.92,7.411-13.282,8.8c2.99-2.082,5.463-5.671,7.121-10.209h5.453  c-0.021-0.096-0.063-0.182-0.074-0.279l-0.285-2.165H55.63c0.841-2.991,1.343-6.308,1.438-9.836h1.574l-0.322-2.444h-1.252  c-0.045-1.637-0.187-3.225-0.396-4.757c-0.779,0.217-1.588,0.431-2.39,0.645c0.174,1.336,0.302,2.7,0.344,4.112h-8.61L45.52,51.3  h9.105c-0.104,3.541-0.639,6.884-1.537,9.836H42.795v-5.401l-1.252,0.875c-0.363,0.257-0.772,0.399-1.192,0.486v4.04H30.058  c-0.439-1.446-0.79-2.989-1.047-4.6c-0.267,0.108-0.542,0.217-0.804,0.329c-0.524,0.223-0.992,0.445-1.49,0.668  c0.219,1.238,0.477,2.451,0.798,3.603h-7.807v-0.002c-0.703,0.429-1.374,0.857-1.996,1.292c-0.491,0.346-0.938,0.686-1.361,1.023  c4.805,9.025,14.303,15.189,25.221,15.189c10.239,0,19.208-5.433,24.25-13.549L65.488,65.37z M21.114,63.58h7.188  c1.661,4.538,4.13,8.127,7.121,10.209C29.482,72.252,24.412,68.564,21.114,63.58z M40.351,73.266  c-3.883-0.645-7.27-4.322-9.421-9.686h9.421V73.266z M42.795,63.58h9.421c-2.149,5.361-5.54,9.041-9.421,9.686V63.58z"></path><path d="M87.363,24.459c-3.995-2.627-12.348-0.773-21.615,2.803L49.466,11.36l-5.485,0.188L57.07,30.955  c-5.385,2.476-10.719,5.232-15.396,7.779l-6.756-5.102l-2.806,0.327l6.977,8.789l0.601,11.208l2.317-1.617l1.677-8.297  c5.19-1.188,11.015-2.66,16.687-4.372l3.053,23.206l4.232-3.495l1.654-22.695C78.628,33.219,86.111,29.072,87.363,24.459z"></path><path d="M48.527,24.071l-1.348-1.999c-1.819-0.362-3.688-0.56-5.61-0.56c-14.262,0-26.082,10.519-28.192,24.199  c1.755-1.324,3.46-2.488,5.021-3.501c0.37-1.097,0.789-2.173,1.308-3.194h3.933c1.418-0.817,2.874-1.633,4.406-2.444h-6.933  c3.296-4.984,8.368-8.671,14.31-10.209c-1.592,1.11-3.032,2.657-4.287,4.538c0.197-0.063,0.393-0.13,0.604-0.153l2.806-0.327  c0.017-0.001,0.037,0,0.052-0.001c1.697-1.917,3.647-3.184,5.752-3.532v6.794l1.615,1.221c0.282-0.151,0.549-0.284,0.829-0.435  v-7.58c2.373,0.393,4.56,1.933,6.396,4.285l3.166-1.505L48.527,24.071z"></path><path d="M35.919,43.951l-4.397-5.538c-2.987,1.531-6.322,3.345-9.807,5.517c-3.892,2.446-7.978,5.27-11.725,8.869  c-1.86,1.813-3.648,3.828-5.098,6.258c-0.717,1.217-1.339,2.549-1.767,3.991c-0.115,0.353-0.192,0.733-0.28,1.101  c-0.047,0.183-0.069,0.375-0.104,0.563l-0.102,0.681l-0.003,0.832l0.023,1.226c0.107,1.477,0.501,3.049,1.285,4.42  c0.766,1.383,1.916,2.446,3.06,3.128c2.327,1.363,4.509,1.586,6.388,1.697c3.773,0.115,6.669-0.5,8.695-0.902  c0.631-0.134,1.162-0.256,1.612-0.361c-5.88-0.309-9.543-1.719-11.51-2.787c-0.562-0.285-1.083-0.605-1.528-0.977  c-0.205-0.159-0.317-0.263-0.317-0.263l0.038-0.003c-0.121-0.115-0.262-0.223-0.364-0.346c-0.886-1.059-0.909-2.021-0.595-3.401  c0.054-0.142,0.101-0.271,0.14-0.405l0.239-0.799l0.008-0.023c0.022-0.125-0.022,0.141-0.016,0.106l0.013-0.028l0.022-0.063  l0.044-0.121c0.033-0.079,0.051-0.159,0.092-0.242c0.079-0.163,0.133-0.326,0.228-0.491c0.332-0.663,0.786-1.338,1.348-2.008  c1.127-1.343,2.652-2.629,4.323-3.804c3.372-2.351,7.309-4.276,11.085-5.885c3.284-1.394,6.455-2.523,9.317-3.473L35.919,43.951z"></path></svg></g><path fill="#0a1256" fill-rule="nonzero" d="M25.92 25.80Q26.16 26.60 26.16 27.52L26.16 27.52Q23.76 27.40 21.60 27.40L21.60 27.40Q19.48 27.40 17.08 27.52L17.08 27.52Q17.08 26.36 17.36 25.80L17.36 25.80Q18.48 25.68 18.94 25.44Q19.40 25.20 19.40 24.64L19.40 24.64Q19.40 24.16 18.80 22.68L18.80 22.68L17.04 18.60Q10.68 18.60 6.48 18.76L6.48 18.76L5.40 21.52Q4.76 23.20 4.76 24.16L4.76 24.16Q4.76 24.96 5.26 25.34Q5.76 25.72 6.84 25.80L6.84 25.80Q7.12 26.48 7.12 27.52L7.12 27.52Q5.76 27.40 3.32 27.40L3.32 27.40Q2.28 27.40 0 27.52L0 27.52Q0 26.52 0.28 25.84L0.28 25.84Q1.32 25.64 1.92 24.80Q2.52 23.96 3.48 21.52L3.48 21.52L11.76 0.28Q12.44 0.12 13.32 0.12L13.32 0.12L22.84 21.96Q23.84 24.20 24.42 24.92Q25 25.64 25.92 25.80L25.92 25.80ZM7.20 16.80L16.28 16.80L13.24 9.68Q12.04 6.92 11.48 5.32L11.48 5.32Q11.04 6.68 9.96 9.64L9.96 9.64L7.20 16.80ZM48.08 21.80Q49 23.36 49.64 24.12Q50.28 24.88 51.14 25.24Q52 25.60 53.48 25.68L53.48 25.68Q53.48 26.84 53.32 27.40L53.32 27.40Q49.24 27.40 47.04 27.76L47.04 27.76Q45.52 25.32 44.36 23.04L44.36 23.04L43.88 22.16Q42.64 19.92 41.62 18.42Q40.60 16.92 38.92 15.12L38.92 15.12L37.68 15.16Q37.08 15.16 36.12 15.08L36.12 15.08L36.12 22.32Q36.12 24.32 36.66 25.02Q37.20 25.72 38.76 25.80L38.76 25.80Q38.96 26.40 38.96 27.52L38.96 27.52Q37.24 27.40 34.20 27.40L34.20 27.40Q31.20 27.40 29.40 27.52L29.40 27.52Q29.40 26.44 29.60 25.80L29.60 25.80Q31.24 25.72 31.80 25.02Q32.36 24.32 32.36 22.32L32.36 22.32L32.36 5.44Q32.36 3.44 31.78 2.70Q31.20 1.96 29.60 1.96L29.60 1.96Q29.40 1.32 29.40 0.28L29.40 0.28Q31 0.36 34.20 0.36L34.20 0.36Q36.40 0.36 37.52 0.32L37.52 0.32L40.88 0.28Q45.20 0.28 47.40 2.14Q49.60 4 49.60 7L49.60 7Q49.60 9.64 47.82 11.56Q46.04 13.48 42.88 14.28L42.88 14.28Q44.28 15.76 45.24 17.18Q46.20 18.60 48.08 21.80L48.08 21.80ZM36.12 13.24Q37.08 13.36 37.88 13.36L37.88 13.36Q41.36 13.36 43.52 11.86Q45.68 10.36 45.68 7.40L45.68 7.40Q45.68 4.88 44.10 3.46Q42.52 2.04 39.08 2.04L39.08 2.04Q37.64 2.04 36.12 2.36L36.12 2.36L36.12 13.24ZM69.08 27.76Q65.16 27.76 62.18 26.00Q59.20 24.24 57.56 21Q55.92 17.76 55.92 13.52L55.92 13.52Q55.92 9.24 57.88 6.18Q59.84 3.12 63.02 1.56Q66.20 0 69.80 0L69.80 0Q72.60 0 75.08 0.50Q77.56 1 79.40 1.88L79.40 1.88Q78.96 4.16 78.96 8.08L78.96 8.08Q78 8.44 76.84 8.44L76.84 8.44Q76.72 4.56 74.98 3.10Q73.24 1.64 70.12 1.64L70.12 1.64Q66.84 1.64 64.60 3.16Q62.36 4.68 61.26 7.18Q60.16 9.68 60.16 12.64L60.16 12.64Q60.16 16.36 61.26 19.34Q62.36 22.32 64.54 24.06Q66.72 25.80 69.88 25.80L69.88 25.80Q71.16 25.80 72.08 25.66Q73 25.52 73.92 25.16L73.92 25.16Q74.68 24.84 74.98 24.22Q75.28 23.60 75.28 22.16L75.28 22.16L75.28 20.16Q75.28 18.24 75.06 17.46Q74.84 16.68 74.16 16.44Q73.48 16.20 71.84 16.16L71.84 16.16Q71.60 15.56 71.60 14.32L71.60 14.32Q73.12 14.44 76.48 14.44L76.48 14.44Q79.48 14.44 81.16 14.36L81.16 14.36Q81.16 15.52 80.92 16.16L80.92 16.16Q80.04 16.20 79.68 16.46Q79.32 16.72 79.18 17.52Q79.04 18.32 79.04 20.16L79.04 20.16L79.04 21.96Q79.04 22.88 79.14 23.54Q79.24 24.20 79.56 24.76L79.56 24.76Q77.72 26.12 75.02 26.94Q72.32 27.76 69.08 27.76L69.08 27.76ZM104.40 20.56Q105.56 20.92 106.16 21.52L106.16 21.52Q105.40 23.88 104.92 27.48L104.92 27.48Q101.80 27.40 96.36 27.40L96.36 27.40Q89.00 27.40 86.00 27.52L86.00 27.52Q86.00 26.36 86.20 25.80L86.20 25.80Q87.32 25.72 87.90 25.40Q88.48 25.08 88.72 24.28Q88.96 23.48 88.96 21.88L88.96 21.88L88.96 5.44Q88.96 3.44 88.38 2.74Q87.80 2.04 86.20 1.96L86.20 1.96Q86.00 1.40 86.00 0.24L86.00 0.24Q88.36 0.36 92.72 0.36L92.72 0.36Q100 0.36 103.96 0.24L103.96 0.24Q104.36 4.64 104.80 6.56L104.80 6.56Q104.20 7.04 103 7.04L103 7.04Q102.80 4.80 101.38 3.38Q99.96 1.96 96.44 1.96L96.44 1.96L92.72 1.96L92.72 12.92L95.24 12.92Q97.76 12.92 98.70 12.26Q99.64 11.60 99.68 9.68L99.68 9.68Q100.64 9.40 101.60 9.40L101.60 9.40Q101.52 10.76 101.52 13.76L101.52 13.76Q101.52 17.04 101.60 18.40L101.60 18.40Q100.52 18.40 99.76 18.20L99.76 18.20Q99.60 16.12 98.66 15.38Q97.72 14.64 95.24 14.64L95.24 14.64L92.72 14.64L92.72 21.88Q92.72 23.40 93.00 24.18Q93.28 24.96 94.06 25.28Q94.84 25.60 96.36 25.60L96.36 25.60L96.60 25.60Q99.36 25.60 100.84 25.04Q102.32 24.48 103.02 23.48Q103.72 22.48 104.40 20.56L104.40 20.56ZM132.04 0.36Q134.20 0.36 135.84 0.24L135.84 0.24Q135.84 1.24 135.64 1.96L135.64 1.96Q134.72 1.96 134.22 2.48Q133.72 3 133.50 4.22Q133.28 5.44 133.28 7.64L133.28 7.64L133.28 27.40Q132.64 27.64 131.56 27.64L131.56 27.64L115.04 6.08L115.04 19.92Q115.04 22.24 115.28 23.48Q115.52 24.72 116.12 25.26Q116.72 25.80 117.80 25.80L117.80 25.80Q118.00 26.40 118.00 27.52L118.00 27.52Q116.20 27.40 114.04 27.40L114.04 27.40Q111.56 27.40 110.04 27.52L110.04 27.52Q110.04 26.40 110.24 25.80L110.24 25.80Q111.32 25.80 111.92 25.26Q112.52 24.72 112.76 23.48Q113.00 22.24 113.00 19.92L113.00 19.92L113.00 3.40L112.84 3.20Q112.28 2.52 111.78 2.28Q111.28 2.04 110.24 1.96L110.24 1.96Q110.04 1.24 110.04 0.24L110.04 0.24Q111.24 0.36 113.00 0.36L113.00 0.36Q114.60 0.36 115.68 0.24L115.68 0.24L131.24 20.88L131.24 7.64Q131.24 5.40 131.00 4.20Q130.76 3 130.16 2.48Q129.56 1.96 128.48 1.96L128.48 1.96Q128.28 0.80 128.28 0.24L128.28 0.24Q130.00 0.36 132.04 0.36L132.04 0.36ZM159.60 0.24L159.56 1.68Q159.56 3.28 159.84 6.64L159.84 6.64Q159 7.04 157.84 7L157.84 7Q157.76 4.60 156.68 3.36Q155.60 2.12 153.32 2.12L153.32 2.12L151.20 2.12L151.20 22.32Q151.20 23.72 151.44 24.42Q151.68 25.12 152.34 25.42Q153 25.72 154.32 25.80L154.32 25.80Q154.52 26.36 154.52 27.52L154.52 27.52Q151.96 27.40 149.28 27.40L149.28 27.40Q146.28 27.40 144.04 27.52L144.04 27.52Q144.04 26.36 144.24 25.80L144.24 25.80Q145.56 25.72 146.24 25.42Q146.92 25.12 147.18 24.40Q147.44 23.68 147.44 22.32L147.44 22.32L147.44 2.12L145.40 2.12Q143.56 2.12 142.56 2.70Q141.56 3.28 141.14 4.26Q140.72 5.24 140.40 7L140.40 7Q139.08 7 138.48 6.64L138.48 6.64Q139.12 3.04 139.12 0.24L139.12 0.24Q141.36 0.36 149.32 0.36L149.32 0.36Q157.40 0.36 159.60 0.24L159.60 0.24ZM165.04 5.44Q165.04 3.44 164.46 2.74Q163.88 2.04 162.28 1.96L162.28 1.96Q162.08 1.40 162.08 0.24L162.08 0.24Q164.28 0.36 166.92 0.36L166.92 0.36Q169.36 0.36 171.76 0.24L171.76 0.24Q171.76 1.40 171.56 1.96L171.56 1.96Q169.96 2.04 169.38 2.74Q168.80 3.44 168.80 5.44L168.80 5.44L168.80 22.32Q168.80 24.32 169.38 25.02Q169.96 25.72 171.56 25.80L171.56 25.80Q171.76 26.36 171.76 27.52L171.76 27.52Q169.36 27.40 166.92 27.40L166.92 27.40Q164.12 27.40 162.08 27.52L162.08 27.52Q162.08 26.36 162.28 25.80L162.28 25.80Q163.88 25.72 164.46 25.02Q165.04 24.32 165.04 22.32L165.04 22.32L165.04 5.44ZM198.24 0.36Q200.40 0.36 202.04 0.24L202.04 0.24Q202.04 1.24 201.84 1.96L201.84 1.96Q200.92 1.96 200.42 2.48Q199.92 3 199.70 4.22Q199.48 5.44 199.48 7.64L199.48 7.64L199.48 27.40Q198.84 27.64 197.76 27.64L197.76 27.64L181.24 6.08L181.24 19.92Q181.24 22.24 181.48 23.48Q181.72 24.72 182.32 25.26Q182.92 25.80 184 25.80L184 25.80Q184.20 26.40 184.20 27.52L184.20 27.52Q182.40 27.40 180.24 27.40L180.24 27.40Q177.76 27.40 176.24 27.52L176.24 27.52Q176.24 26.40 176.44 25.80L176.44 25.80Q177.52 25.80 178.12 25.26Q178.72 24.72 178.96 23.48Q179.20 22.24 179.20 19.92L179.20 19.92L179.20 3.40L179.04 3.20Q178.48 2.52 177.98 2.28Q177.48 2.04 176.44 1.96L176.44 1.96Q176.24 1.24 176.24 0.24L176.24 0.24Q177.44 0.36 179.20 0.36L179.20 0.36Q180.80 0.36 181.88 0.24L181.88 0.24L197.44 20.88L197.44 7.64Q197.44 5.40 197.20 4.20Q196.96 3 196.36 2.48Q195.76 1.96 194.68 1.96L194.68 1.96Q194.48 0.80 194.48 0.24L194.48 0.24Q196.20 0.36 198.24 0.36L198.24 0.36ZM229.80 25.80Q230.04 26.60 230.04 27.52L230.04 27.52Q227.64 27.40 225.48 27.40L225.48 27.40Q223.36 27.40 220.96 27.52L220.96 27.52Q220.96 26.36 221.24 25.80L221.24 25.80Q222.36 25.68 222.82 25.44Q223.28 25.20 223.28 24.64L223.28 24.64Q223.28 24.16 222.68 22.68L222.68 22.68L220.92 18.60Q214.56 18.60 210.36 18.76L210.36 18.76L209.28 21.52Q208.64 23.20 208.64 24.16L208.64 24.16Q208.64 24.96 209.14 25.34Q209.64 25.72 210.72 25.80L210.72 25.80Q211 26.48 211 27.52L211 27.52Q209.64 27.40 207.20 27.40L207.20 27.40Q206.16 27.40 203.88 27.52L203.88 27.52Q203.88 26.52 204.16 25.84L204.16 25.84Q205.20 25.64 205.80 24.80Q206.40 23.96 207.36 21.52L207.36 21.52L215.64 0.28Q216.32 0.12 217.20 0.12L217.20 0.12L226.72 21.96Q227.72 24.20 228.30 24.92Q228.88 25.64 229.80 25.80L229.80 25.80ZM211.08 16.80L220.16 16.80L217.12 9.68Q215.92 6.92 215.36 5.32L215.36 5.32Q214.92 6.68 213.84 9.64L213.84 9.64L211.08 16.80Z" transform="translate(236.567 0.001) scale(1)"></path><path fill="#0a1256" fill-rule="nonzero" d="M21.12 0.12L21.08 1.56Q21.08 3.16 21.36 6.52L21.36 6.52Q20.52 6.92 19.36 6.88L19.36 6.88Q19.28 4.48 18.20 3.24Q17.12 2 14.84 2L14.84 2L12.72 2L12.72 22.20Q12.72 23.60 12.96 24.30Q13.20 25 13.86 25.30Q14.52 25.60 15.84 25.68L15.84 25.68Q16.04 26.24 16.04 27.40L16.04 27.40Q13.48 27.28 10.80 27.28L10.80 27.28Q7.80 27.28 5.56 27.40L5.56 27.40Q5.56 26.24 5.76 25.68L5.76 25.68Q7.08 25.60 7.76 25.30Q8.44 25 8.70 24.28Q8.96 23.56 8.96 22.20L8.96 22.20L8.96 2L6.92 2Q5.08 2 4.08 2.58Q3.08 3.16 2.66 4.14Q2.24 5.12 1.92 6.88L1.92 6.88Q0.60 6.88 0 6.52L0 6.52Q0.64 2.92 0.64 0.12L0.64 0.12Q2.88 0.24 10.84 0.24L10.84 0.24Q18.92 0.24 21.12 0.12L21.12 0.12ZM42.28 21.68Q43.20 23.24 43.84 24Q44.48 24.76 45.34 25.12Q46.20 25.48 47.68 25.56L47.68 25.56Q47.68 26.72 47.52 27.28L47.52 27.28Q43.44 27.28 41.24 27.64L41.24 27.64Q39.72 25.20 38.56 22.92L38.56 22.92L38.08 22.04Q36.84 19.80 35.82 18.30Q34.80 16.80 33.12 15L33.12 15L31.88 15.04Q31.28 15.04 30.32 14.96L30.32 14.96L30.32 22.20Q30.32 24.20 30.86 24.90Q31.40 25.60 32.96 25.68L32.96 25.68Q33.16 26.28 33.16 27.40L33.16 27.40Q31.44 27.28 28.40 27.28L28.40 27.28Q25.40 27.28 23.60 27.40L23.60 27.40Q23.60 26.32 23.80 25.68L23.80 25.68Q25.44 25.60 26.00 24.90Q26.56 24.20 26.56 22.20L26.56 22.20L26.56 5.32Q26.56 3.32 25.98 2.58Q25.40 1.84 23.80 1.84L23.80 1.84Q23.60 1.20 23.60 0.16L23.60 0.16Q25.20 0.24 28.40 0.24L28.40 0.24Q30.60 0.24 31.72 0.20L31.72 0.20L35.08 0.16Q39.40 0.16 41.60 2.02Q43.80 3.88 43.80 6.88L43.80 6.88Q43.80 9.52 42.02 11.44Q40.24 13.36 37.08 14.16L37.08 14.16Q38.48 15.64 39.44 17.06Q40.40 18.48 42.28 21.68L42.28 21.68ZM30.32 13.12Q31.28 13.24 32.08 13.24L32.08 13.24Q35.56 13.24 37.72 11.74Q39.88 10.24 39.88 7.28L39.88 7.28Q39.88 4.76 38.30 3.34Q36.72 1.92 33.28 1.92L33.28 1.92Q31.84 1.92 30.32 2.24L30.32 2.24L30.32 13.12ZM75.64 25.68Q75.88 26.48 75.88 27.40L75.88 27.40Q73.48 27.28 71.32 27.28L71.32 27.28Q69.20 27.28 66.80 27.40L66.80 27.40Q66.80 26.24 67.08 25.68L67.08 25.68Q68.20 25.56 68.66 25.32Q69.12 25.08 69.12 24.52L69.12 24.52Q69.12 24.04 68.52 22.56L68.52 22.56L66.76 18.48Q60.40 18.48 56.20 18.64L56.20 18.64L55.12 21.40Q54.48 23.08 54.48 24.04L54.48 24.04Q54.48 24.84 54.98 25.22Q55.48 25.60 56.56 25.68L56.56 25.68Q56.84 26.36 56.84 27.40L56.84 27.40Q55.48 27.28 53.04 27.28L53.04 27.28Q52 27.28 49.72 27.40L49.72 27.40Q49.72 26.40 50 25.72L50 25.72Q51.04 25.52 51.64 24.68Q52.24 23.84 53.20 21.40L53.20 21.40L61.48 0.16Q62.16 0 63.04 0L63.04 0L72.56 21.84Q73.56 24.08 74.14 24.80Q74.72 25.52 75.64 25.68L75.64 25.68ZM56.92 16.68L66 16.68L62.96 9.56Q61.76 6.80 61.20 5.20L61.20 5.20Q60.76 6.56 59.68 9.52L59.68 9.52L56.92 16.68ZM93.24 0.24Q95.60 0.24 97.32 0.12L97.32 0.12Q97.32 1.08 97.12 1.84L97.12 1.84Q95.96 2.12 95.26 3.20Q94.56 4.28 93.68 6.56L93.68 6.56Q89.72 16.72 85.32 27.36L85.32 27.36Q84.64 27.52 83.76 27.52L83.76 27.52Q79.12 15 75.48 6.44L75.48 6.44Q74.56 4.28 74.12 3.42Q73.68 2.56 73.26 2.24Q72.84 1.92 72.08 1.84L72.08 1.84Q71.88 1.04 71.88 0.12L71.88 0.12Q73.44 0.24 76.72 0.24L76.72 0.24Q79.28 0.24 81.56 0.12L81.56 0.12Q81.56 0.92 81.36 1.84L81.36 1.84Q80 1.92 79.42 2.22Q78.84 2.52 78.84 3.28L78.84 3.28Q78.84 4.16 79.76 6.24L79.76 6.24Q82.48 12.68 85.72 21.60L85.72 21.60Q89.20 13.68 91.68 6.72L91.68 6.72Q92.24 5.12 92.24 4.08L92.24 4.08Q92.24 3.08 91.72 2.54Q91.20 2 90.04 1.84L90.04 1.84Q89.84 1.08 89.84 0.12L89.84 0.12Q91.60 0.24 93.24 0.24L93.24 0.24ZM118.96 20.44Q120.12 20.80 120.72 21.40L120.72 21.40Q119.96 23.76 119.48 27.36L119.48 27.36Q116.36 27.28 110.92 27.28L110.92 27.28Q103.56 27.28 100.56 27.40L100.56 27.40Q100.56 26.24 100.76 25.68L100.76 25.68Q101.88 25.60 102.46 25.28Q103.04 24.96 103.28 24.16Q103.52 23.36 103.52 21.76L103.52 21.76L103.52 5.32Q103.52 3.32 102.94 2.62Q102.36 1.92 100.76 1.84L100.76 1.84Q100.56 1.28 100.56 0.12L100.56 0.12Q102.92 0.24 107.28 0.24L107.28 0.24Q114.56 0.24 118.52 0.12L118.52 0.12Q118.92 4.52 119.36 6.44L119.36 6.44Q118.76 6.92 117.56 6.92L117.56 6.92Q117.36 4.68 115.94 3.26Q114.52 1.84 111 1.84L111 1.84L107.28 1.84L107.28 12.80L109.80 12.80Q112.32 12.80 113.26 12.14Q114.20 11.48 114.24 9.56L114.24 9.56Q115.20 9.28 116.16 9.28L116.16 9.28Q116.08 10.64 116.08 13.64L116.08 13.64Q116.08 16.92 116.16 18.28L116.16 18.28Q115.08 18.28 114.32 18.08L114.32 18.08Q114.16 16 113.22 15.26Q112.28 14.52 109.80 14.52L109.80 14.52L107.28 14.52L107.28 21.76Q107.28 23.28 107.56 24.06Q107.84 24.84 108.62 25.16Q109.40 25.48 110.92 25.48L110.92 25.48L111.16 25.48Q113.92 25.48 115.40 24.92Q116.88 24.36 117.58 23.36Q118.28 22.36 118.96 20.44L118.96 20.44ZM135.20 25.48Q137.40 25.48 138.68 25Q139.96 24.52 140.72 23.48Q141.48 22.44 142.20 20.44L142.20 20.44Q143.36 20.80 143.96 21.40L143.96 21.40Q143.20 23.76 142.72 27.36L142.72 27.36Q139.60 27.28 134.96 27.28L134.96 27.28Q127.60 27.28 124.60 27.40L124.60 27.40Q124.60 26.24 124.80 25.68L124.80 25.68Q125.92 25.60 126.50 25.28Q127.08 24.96 127.34 24.14Q127.60 23.32 127.60 21.76L127.60 21.76L127.60 5.32Q127.60 3.32 127.02 2.62Q126.44 1.92 124.84 1.84L124.84 1.84Q124.64 1.28 124.64 0.12L124.64 0.12Q126.96 0.24 129.48 0.24L129.48 0.24Q131.92 0.24 134.32 0.12L134.32 0.12Q134.32 1.28 134.12 1.84L134.12 1.84Q133 1.92 132.42 2.22Q131.84 2.52 131.60 3.28Q131.36 4.04 131.36 5.44L131.36 5.44L131.36 21.76Q131.36 23.32 131.64 24.08Q131.92 24.84 132.68 25.16Q133.44 25.48 134.96 25.48L134.96 25.48L135.20 25.48Z" transform="translate(236.567 35.761) scale(1.598)"></path><path fill="#0a1256" fill-rule="nonzero" d="M25.92 25.68Q26.16 26.48 26.16 27.40L26.16 27.40Q23.76 27.28 21.60 27.28L21.60 27.28Q19.48 27.28 17.08 27.40L17.08 27.40Q17.08 26.24 17.36 25.68L17.36 25.68Q18.48 25.56 18.94 25.32Q19.40 25.08 19.40 24.52L19.40 24.52Q19.40 24.04 18.80 22.56L18.80 22.56L17.04 18.48Q10.68 18.48 6.48 18.64L6.48 18.64L5.40 21.40Q4.76 23.08 4.76 24.04L4.76 24.04Q4.76 24.84 5.26 25.22Q5.76 25.60 6.84 25.68L6.84 25.68Q7.12 26.36 7.12 27.40L7.12 27.40Q5.76 27.28 3.32 27.28L3.32 27.28Q2.28 27.28 0 27.40L0 27.40Q0 26.40 0.28 25.72L0.28 25.72Q1.32 25.52 1.92 24.68Q2.52 23.84 3.48 21.40L3.48 21.40L11.76 0.16Q12.44 0 13.32 0L13.32 0L22.84 21.84Q23.84 24.08 24.42 24.80Q25 25.52 25.92 25.68L25.92 25.68ZM7.20 16.68L16.28 16.68L13.24 9.56Q12.04 6.80 11.48 5.20L11.48 5.20Q11.04 6.56 9.96 9.52L9.96 9.52L7.20 16.68ZM51.40 0.24Q53.56 0.24 55.20 0.12L55.20 0.12Q55.20 1.12 55 1.84L55 1.84Q54.08 1.84 53.58 2.36Q53.08 2.88 52.86 4.10Q52.64 5.32 52.64 7.52L52.64 7.52L52.64 27.28Q52 27.52 50.92 27.52L50.92 27.52L34.40 5.96L34.40 19.80Q34.40 22.12 34.64 23.36Q34.88 24.60 35.48 25.14Q36.08 25.68 37.16 25.68L37.16 25.68Q37.36 26.28 37.36 27.40L37.36 27.40Q35.56 27.28 33.40 27.28L33.40 27.28Q30.92 27.28 29.40 27.40L29.40 27.40Q29.40 26.28 29.60 25.68L29.60 25.68Q30.68 25.68 31.28 25.14Q31.88 24.60 32.12 23.36Q32.36 22.12 32.36 19.80L32.36 19.80L32.36 3.28L32.20 3.08Q31.64 2.40 31.14 2.16Q30.64 1.92 29.60 1.84L29.60 1.84Q29.40 1.12 29.40 0.12L29.40 0.12Q30.60 0.24 32.36 0.24L32.36 0.24Q33.96 0.24 35.04 0.12L35.04 0.12L50.60 20.76L50.60 7.52Q50.60 5.28 50.36 4.08Q50.12 2.88 49.52 2.36Q48.92 1.84 47.84 1.84L47.84 1.84Q47.64 0.68 47.64 0.12L47.64 0.12Q49.36 0.24 51.40 0.24L51.40 0.24ZM69.44 0.16Q76.04 0.16 80.34 2.90Q84.64 5.64 84.64 13.08L84.64 13.08Q84.64 21.52 79.82 24.40Q75 27.28 69.44 27.28L69.44 27.28Q62.08 27.28 59.08 27.40L59.08 27.40Q59.08 26.24 59.28 25.68L59.28 25.68Q60.40 25.60 60.98 25.28Q61.56 24.96 61.82 24.14Q62.08 23.32 62.08 21.76L62.08 21.76L62.08 5.32Q62.08 3.32 61.50 2.62Q60.92 1.92 59.32 1.84L59.32 1.84Q59.12 1.28 59.12 0.12L59.12 0.12Q60.96 0.24 64.72 0.24L64.72 0.24L67.08 0.20Q67.88 0.16 69.44 0.16L69.44 0.16ZM69.44 25.48Q74.64 25.48 77.58 22.78Q80.52 20.08 80.52 13.68L80.52 13.68Q80.52 9.56 78.90 6.86Q77.28 4.16 74.64 2.92Q72 1.68 68.80 1.68L68.80 1.68Q68.08 1.68 67.22 1.78Q66.36 1.88 65.84 2.04L65.84 2.04L65.84 21.76Q65.84 23.32 66.12 24.08Q66.40 24.84 67.16 25.16Q67.92 25.48 69.44 25.48L69.44 25.48Z" transform="translate(236.567 87.929) scale(2.718)"></path><path fill="#0a1256" fill-rule="nonzero" d="M21.12 0.24L21.08 1.68Q21.08 3.28 21.36 6.64L21.36 6.64Q20.52 7.04 19.36 7L19.36 7Q19.28 4.60 18.20 3.36Q17.12 2.12 14.84 2.12L14.84 2.12L12.72 2.12L12.72 22.32Q12.72 23.72 12.96 24.42Q13.20 25.12 13.86 25.42Q14.52 25.72 15.84 25.80L15.84 25.80Q16.04 26.36 16.04 27.52L16.04 27.52Q13.48 27.40 10.80 27.40L10.80 27.40Q7.80 27.40 5.56 27.52L5.56 27.52Q5.56 26.36 5.76 25.80L5.76 25.80Q7.08 25.72 7.76 25.42Q8.44 25.12 8.70 24.40Q8.96 23.68 8.96 22.32L8.96 22.32L8.96 2.12L6.92 2.12Q5.08 2.12 4.08 2.70Q3.08 3.28 2.66 4.26Q2.24 5.24 1.92 7L1.92 7Q0.60 7 0 6.64L0 6.64Q0.64 3.04 0.64 0.24L0.64 0.24Q2.88 0.36 10.84 0.36L10.84 0.36Q18.92 0.36 21.12 0.24L21.12 0.24ZM36.64 27.76Q32.76 27.76 29.76 25.94Q26.76 24.12 25.10 20.94Q23.44 17.76 23.44 13.80L23.44 13.80Q23.44 9.80 25.18 6.66Q26.92 3.52 29.94 1.76Q32.96 0 36.64 0L36.64 0Q40.44 0 43.46 1.74Q46.48 3.48 48.18 6.62Q49.88 9.76 49.88 13.80L49.88 13.80Q49.88 17.72 48.18 20.90Q46.48 24.08 43.46 25.92Q40.44 27.76 36.64 27.76L36.64 27.76ZM37.44 25.80Q39.96 25.80 41.86 24.36Q43.76 22.92 44.76 20.42Q45.76 17.92 45.76 14.84L45.76 14.84Q45.76 11.28 44.46 8.32Q43.16 5.36 40.88 3.64Q38.60 1.92 35.80 1.92L35.80 1.92Q33.44 1.92 31.56 3.28Q29.68 4.64 28.62 7.08Q27.56 9.52 27.56 12.72L27.56 12.72Q27.56 16.16 28.74 19.16Q29.92 22.16 32.16 23.98Q34.40 25.80 37.44 25.80L37.44 25.80ZM74.08 16.64Q74.08 20.24 73.60 22.20Q73.12 24.16 71.80 25.48L71.80 25.48Q69.52 27.76 65.32 27.76L65.32 27.76Q59.96 27.76 57.74 25.40Q55.52 23.04 55.52 18.16L55.52 18.16L55.52 5.44Q55.52 4 55.34 3.32Q55.16 2.64 54.68 2.36Q54.20 2.08 53.16 1.96L53.16 1.96Q52.96 1.24 52.96 0.24L52.96 0.24Q54.56 0.36 57.60 0.36L57.60 0.36Q60.44 0.36 62.24 0.24L62.24 0.24Q62.24 1.24 62.04 1.96L62.04 1.96Q60.76 2.08 60.22 2.34Q59.68 2.60 59.48 3.26Q59.28 3.92 59.28 5.44L59.28 5.44L59.28 17.60Q59.28 21.36 60.82 23.50Q62.36 25.64 66.08 25.64L66.08 25.64Q67.20 25.64 68.38 25.26Q69.56 24.88 70.32 24.12L70.32 24.12Q71.28 23.16 71.66 21.62Q72.04 20.08 72.04 16.96L72.04 16.96L72.04 7.04Q72.04 5 71.84 4Q71.64 3 71.06 2.54Q70.48 2.08 69.28 1.96L69.28 1.96Q69.08 0.96 69.08 0.24L69.08 0.24Q70.44 0.36 72.84 0.36L72.84 0.36Q75.08 0.36 76.64 0.24L76.64 0.24Q76.64 0.84 76.44 1.96L76.44 1.96Q75.48 2.08 74.98 2.52Q74.48 2.96 74.28 4.02Q74.08 5.08 74.08 7.04L74.08 7.04L74.08 16.64ZM99.20 21.80Q100.12 23.36 100.76 24.12Q101.40 24.88 102.26 25.24Q103.12 25.60 104.60 25.68L104.60 25.68Q104.60 26.84 104.44 27.40L104.44 27.40Q100.36 27.40 98.16 27.76L98.16 27.76Q96.64 25.32 95.48 23.04L95.48 23.04L95 22.16Q93.76 19.92 92.74 18.42Q91.72 16.92 90.04 15.12L90.04 15.12L88.80 15.16Q88.20 15.16 87.24 15.08L87.24 15.08L87.24 22.32Q87.24 24.32 87.78 25.02Q88.32 25.72 89.88 25.80L89.88 25.80Q90.08 26.40 90.08 27.52L90.08 27.52Q88.36 27.40 85.32 27.40L85.32 27.40Q82.32 27.40 80.52 27.52L80.52 27.52Q80.52 26.44 80.72 25.80L80.72 25.80Q82.36 25.72 82.92 25.02Q83.48 24.32 83.48 22.32L83.48 22.32L83.48 5.44Q83.48 3.44 82.90 2.70Q82.32 1.96 80.72 1.96L80.72 1.96Q80.52 1.32 80.52 0.28L80.52 0.28Q82.12 0.36 85.32 0.36L85.32 0.36Q87.52 0.36 88.64 0.32L88.64 0.32L92 0.28Q96.32 0.28 98.52 2.14Q100.72 4 100.72 7L100.72 7Q100.72 9.64 98.94 11.56Q97.16 13.48 94 14.28L94 14.28Q95.40 15.76 96.36 17.18Q97.32 18.60 99.20 21.80L99.20 21.80ZM87.24 13.24Q88.20 13.36 89 13.36L89 13.36Q92.48 13.36 94.64 11.86Q96.80 10.36 96.80 7.40L96.80 7.40Q96.80 4.88 95.22 3.46Q93.64 2.04 90.20 2.04L90.20 2.04Q88.76 2.04 87.24 2.36L87.24 2.36L87.24 13.24ZM116.48 27.76Q114.16 27.76 112.32 27.14Q110.48 26.52 108.36 25.20L108.36 25.20Q108.72 22.96 108.72 19.52L108.72 19.52Q109.64 19.28 110.88 19.28L110.88 19.28Q111.04 22.48 112.50 24.16Q113.96 25.84 117.04 25.84L117.04 25.84Q119.64 25.84 120.90 24.70Q122.16 23.56 122.16 21.68L122.16 21.68Q122.16 20.12 121.36 19.04Q120.56 17.96 119.40 17.26Q118.24 16.56 116.16 15.60L116.16 15.60Q113.76 14.44 112.32 13.52Q110.88 12.60 109.86 11.06Q108.84 9.52 108.84 7.20L108.84 7.20Q108.84 3.84 111 1.92Q113.16 0 116.88 0L116.88 0Q118.84 0 120.64 0.50Q122.44 1 123.56 1.76L123.56 1.76Q123.56 5.32 123.80 7.04L123.80 7.04Q122.92 7.40 121.56 7.40L121.56 7.40Q121 4.12 119.88 2.94Q118.76 1.76 116.84 1.76L116.84 1.76Q114.72 1.76 113.52 2.80Q112.32 3.84 112.32 5.72L112.32 5.72Q112.32 7.28 113.14 8.40Q113.96 9.52 115.14 10.24Q116.32 10.96 118.40 12.00L118.40 12.00Q120.76 13.12 122.18 14.04Q123.60 14.96 124.60 16.44Q125.60 17.92 125.60 20.08L125.60 20.08Q125.60 22.16 124.62 23.90Q123.64 25.64 121.58 26.70Q119.52 27.76 116.48 27.76L116.48 27.76Z" transform="translate(236.567 170.724) scale(1.832)"></path></svg>